<?xml version="1.0" encoding="UTF-8" standalone="no"?>
<!DOCTYPE svg PUBLIC "-//W3C//DTD SVG 20010904//EN"
              "http://www.w3.org/TR/2001/REC-SVG-20010904/DTD/svg10.dtd">

<svg xmlns="http://www.w3.org/2000/svg"
     width="12.9444in" height="12.9861in"
     viewBox="0 0 932 935">
  <path id="Selection #1"
        fill="black" stroke="black" stroke-width="1"
        d="M 452.00,0.42
           C 465.56,-1.23 479.43,0.84 493.00,1.00
             493.00,1.00 503.00,1.91 503.00,1.91
             533.39,4.00 563.65,9.22 593.00,17.58
             673.97,40.66 749.36,85.23 806.91,147.00
             876.14,221.30 919.38,315.95 929.17,417.00
             929.17,417.00 931.00,434.00 931.00,434.00
             931.00,434.00 931.00,443.00 931.00,443.00
             931.00,443.00 932.00,453.00 932.00,453.00
             932.69,512.52 925.36,568.66 905.31,625.00
             861.83,747.19 767.14,846.64 648.00,897.57
             610.18,913.74 567.74,924.92 527.00,930.28
             527.00,930.28 498.00,933.09 498.00,933.09
             498.00,933.09 486.00,934.00 486.00,934.00
             486.00,934.00 446.00,934.00 446.00,934.00
             446.00,934.00 436.00,933.09 436.00,933.09
             391.15,930.02 349.28,922.23 307.00,906.42
             307.00,906.42 266.00,889.52 266.00,889.52
             218.15,866.70 170.02,832.92 133.01,795.00
             87.99,748.85 52.19,693.36 29.42,633.00
             -16.39,511.55 -9.02,368.66 50.26,253.00
             107.16,141.99 208.08,57.99 327.00,21.02
             354.46,12.49 384.42,6.22 413.00,3.16
             413.00,3.16 439.00,1.00 439.00,1.00
             444.14,0.94 446.73,1.17 452.00,0.42 Z
           M 446.00,17.14
           C 446.00,17.14 418.00,19.29 418.00,19.29
             387.70,23.01 358.17,28.98 329.00,38.02
             273.76,55.15 216.89,86.73 173.00,124.30
             149.07,144.78 127.89,168.19 108.58,193.00
             91.17,215.36 75.63,239.45 63.26,265.00
             -2.85,401.50 0.60,565.89 78.60,697.00
             99.29,731.77 130.26,770.48 159.96,797.82
             174.18,810.90 189.45,822.67 205.00,834.12
             239.05,859.18 281.91,880.30 322.00,893.67
             358.42,905.81 396.56,914.36 435.00,916.04
             435.00,916.04 446.00,917.00 446.00,917.00
             446.00,917.00 488.00,917.00 488.00,917.00
             502.94,916.98 535.78,912.23 551.00,909.20
             594.03,900.65 636.26,886.65 675.00,865.84
             733.00,834.66 784.28,792.68 824.10,740.00
             874.50,673.33 907.35,590.58 913.09,507.00
             913.09,507.00 915.00,481.00 915.00,481.00
             915.89,404.38 902.23,331.96 867.75,263.00
             840.59,208.68 801.26,160.41 755.00,121.29
             712.55,85.40 661.66,57.55 609.00,40.00
             577.13,29.38 540.52,21.26 507.00,18.91
             507.00,18.91 497.00,18.00 497.00,18.00
             497.00,18.00 476.00,17.14 476.00,17.14
             476.00,17.14 446.00,17.14 446.00,17.14 Z
           M 417.00,327.52
           C 425.93,326.10 441.76,327.58 446.82,336.30
             451.97,345.17 435.39,356.59 428.00,357.94
             421.37,359.16 405.34,353.38 402.74,346.91
             400.60,341.58 405.79,332.93 410.17,330.08
             412.22,328.75 414.67,328.14 417.00,327.52 Z
           M 379.18,360.84
           C 382.32,360.60 383.29,360.87 385.96,362.80
             396.19,370.25 385.29,382.12 381.96,383.40
             377.92,384.95 370.05,382.99 369.52,377.96
             369.05,373.33 375.34,363.09 379.18,360.84 Z
           M 134.00,453.00
           C 134.00,453.00 139.57,436.00 139.57,436.00
             139.57,436.00 155.20,388.00 155.20,388.00
             161.11,373.11 167.43,363.03 185.00,363.00
             185.00,363.00 203.00,362.00 203.00,362.00
             203.00,362.00 221.00,362.00 221.00,362.00
             221.00,362.00 238.00,361.00 238.00,361.00
             238.00,361.00 260.00,361.00 260.00,361.00
             260.00,361.00 275.00,362.00 275.00,362.00
             275.00,362.00 292.00,362.00 292.00,362.00
             292.00,362.00 307.00,363.00 307.00,363.00
             316.52,363.11 324.57,362.10 333.00,367.85
             341.59,373.71 343.68,382.85 346.86,392.00
             346.86,392.00 364.00,453.00 364.00,453.00
             364.00,453.00 134.00,453.00 134.00,453.00 Z
           M 357.00,449.00
           C 357.00,449.00 340.00,394.00 340.00,394.00
             337.84,387.53 335.44,376.60 329.96,372.51
             325.00,368.82 315.00,369.07 309.00,369.00
             309.00,369.00 296.00,368.00 296.00,368.00
             296.00,368.00 274.00,368.00 274.00,368.00
             274.00,368.00 257.00,367.00 257.00,367.00
             257.00,367.00 240.00,367.00 240.00,367.00
             240.00,367.00 224.00,368.00 224.00,368.00
             224.00,368.00 203.00,368.00 203.00,368.00
             203.00,368.00 193.00,368.91 193.00,368.91
             186.57,369.35 177.75,368.45 172.02,372.01
             166.25,375.59 164.14,384.86 161.81,391.00
             161.81,391.00 148.95,426.00 148.95,426.00
             146.46,432.80 142.39,441.94 142.00,449.00
             142.00,449.00 164.00,447.00 164.00,447.00
             164.00,447.00 173.00,447.00 173.00,447.00
             173.00,447.00 186.00,446.00 186.00,446.00
             186.00,446.00 198.00,445.04 198.00,445.04
             198.00,445.04 210.00,445.04 210.00,445.04
             210.00,445.04 227.00,444.00 227.00,444.00
             227.00,444.00 270.00,444.00 270.00,444.00
             270.00,444.00 282.00,444.96 282.00,444.96
             282.00,444.96 296.00,444.96 296.00,444.96
             296.00,444.96 311.00,446.00 311.00,446.00
             311.00,446.00 357.00,449.00 357.00,449.00 Z
           M 405.00,412.00
           C 409.55,403.16 417.58,396.32 426.00,391.20
             466.46,366.63 520.85,389.25 530.79,436.00
             531.52,439.44 532.92,450.79 532.68,454.00
             532.22,460.11 531.47,466.08 529.85,472.00
             529.24,474.24 527.47,478.61 528.35,480.73
             529.25,482.91 532.97,484.26 535.00,485.26
             535.00,485.26 555.00,494.75 555.00,494.75
             555.00,494.75 611.00,521.31 611.00,521.31
             619.13,525.04 631.02,531.74 639.00,534.00
             642.17,525.37 647.49,518.40 654.00,512.01
             679.83,486.70 721.08,486.76 747.96,510.44
             768.95,528.93 774.55,558.90 767.00,585.00
             767.00,585.00 789.00,595.35 789.00,595.35
             793.30,597.22 800.59,599.54 803.94,602.39
             812.25,609.45 804.30,618.46 797.00,618.85
             788.37,619.32 779.62,610.57 771.00,610.00
             771.00,610.00 749.00,598.00 749.00,598.00
             749.00,598.00 746.00,606.00 746.00,606.00
             746.00,606.00 745.00,607.00 745.00,607.00
             741.50,607.77 731.16,614.67 730.00,618.00
             730.00,618.00 723.00,620.00 723.00,620.00
             723.00,620.00 725.00,620.00 725.00,620.00
             725.00,620.00 725.00,621.00 725.00,621.00
             725.00,621.00 715.00,622.00 715.00,622.00
             715.00,622.00 803.00,622.00 803.00,622.00
             803.00,622.00 817.00,623.00 817.00,623.00
             817.00,623.00 869.00,623.00 869.00,623.00
             870.65,623.00 874.16,622.86 875.57,623.57
             877.83,624.72 878.12,627.71 874.85,628.90
             873.60,629.06 870.42,629.00 869.00,628.90
             869.00,628.90 843.00,628.90 843.00,628.90
             843.00,628.90 816.00,630.00 816.00,630.00
             816.00,630.00 666.00,630.00 666.00,630.00
             666.00,630.00 651.00,629.00 651.00,629.00
             651.00,629.00 493.00,629.00 493.00,629.00
             493.00,629.00 406.00,629.00 406.00,629.00
             406.00,629.00 391.00,630.00 391.00,630.00
             391.00,630.00 271.00,630.00 271.00,630.00
             271.00,630.00 257.00,629.00 257.00,629.00
             257.00,629.00 233.00,629.00 233.00,629.00
             233.00,629.00 218.00,630.00 218.00,630.00
             218.00,630.00 128.00,630.00 128.00,630.00
             128.00,630.00 111.00,628.90 111.00,628.90
             111.00,628.90 60.00,628.90 60.00,628.90
             58.58,629.00 55.40,629.06 54.15,628.90
             50.88,627.71 51.17,624.72 53.43,623.57
             54.84,622.86 58.35,623.00 60.00,623.00
             60.00,623.00 112.00,623.00 112.00,623.00
             110.98,621.28 110.07,619.97 109.51,618.00
             109.51,618.00 109.00,589.00 109.00,589.00
             108.83,576.93 98.10,574.06 101.00,565.00
             102.61,571.77 107.97,579.43 115.00,581.23
             119.05,582.58 126.18,581.02 131.00,581.23
             131.00,581.23 167.00,581.23 167.00,581.23
             167.00,581.23 176.00,581.23 176.00,581.23
             176.00,581.23 189.00,582.00 189.00,582.00
             189.00,582.00 221.00,582.00 221.00,582.00
             221.00,582.00 233.00,581.18 233.00,581.18
             233.00,581.18 243.00,582.00 243.00,582.00
             243.00,582.00 263.00,581.00 263.00,581.00
             263.00,581.00 280.00,581.00 280.00,581.00
             280.00,581.00 291.00,581.96 291.00,581.96
             291.00,581.96 301.00,581.18 301.00,581.18
             301.00,581.18 315.00,582.00 315.00,582.00
             315.00,582.00 331.00,581.01 331.00,581.01
             331.00,581.01 350.00,582.00 350.00,582.00
             350.00,582.00 367.00,581.04 367.00,581.04
             372.61,581.28 377.60,582.94 383.04,579.88
             387.82,577.18 389.73,573.04 393.00,569.00
             389.51,580.95 384.19,577.18 384.00,588.00
             383.81,599.56 386.01,612.30 381.00,623.00
             381.00,623.00 687.00,623.00 687.00,623.00
             682.78,618.96 675.12,617.33 669.00,613.10
             655.75,603.94 645.20,587.42 645.00,571.00
             645.00,571.00 645.00,566.00 645.00,566.00
             645.00,563.70 645.22,560.36 643.98,558.38
             642.19,555.53 628.71,549.38 625.00,547.58
             625.00,547.58 560.00,516.76 560.00,516.76
             560.00,516.76 521.00,498.42 521.00,498.42
             517.71,496.99 509.28,492.49 506.09,493.36
             504.19,493.88 496.55,500.69 494.00,502.40
             486.28,507.58 476.30,510.89 467.00,511.00
             457.84,511.10 450.84,511.08 442.00,507.91
             419.09,499.69 406.09,478.72 405.00,455.00
             405.00,455.00 390.00,459.71 390.00,459.71
             388.14,460.40 384.87,462.10 383.00,461.91
             380.97,461.70 379.49,460.27 378.00,459.03
             371.29,453.38 370.69,451.38 369.00,443.00
             369.00,443.00 375.00,442.00 375.00,442.00
             375.83,437.39 375.71,430.63 380.19,428.02
             380.19,428.02 389.00,426.00 389.00,426.00
             382.53,423.41 365.44,417.09 361.70,411.90
             358.33,407.22 360.57,396.31 367.04,395.61
             370.52,395.24 376.86,398.68 380.00,400.25
             380.00,400.25 405.00,412.00 405.00,412.00 Z
           M 463.00,415.32
           C 463.00,415.32 454.00,416.53 454.00,416.53
             443.45,418.96 433.89,427.30 429.33,437.00
             418.11,460.81 433.66,490.68 461.00,491.00
             469.45,491.09 475.63,490.30 483.00,485.73
             515.21,465.75 501.14,414.51 463.00,415.32 Z
           M 129.00,443.00
           C 126.16,451.68 127.32,452.33 119.98,458.30
             118.64,459.40 116.63,461.22 115.00,461.77
             111.92,462.81 107.98,460.16 105.00,459.09
             97.84,456.52 89.82,457.36 88.54,448.00
             87.96,445.59 88.39,443.40 88.54,441.00
             88.50,438.80 88.22,437.24 88.54,435.00
             91.48,425.44 100.26,426.96 108.00,427.00
             110.85,427.02 114.25,426.82 116.58,428.74
             119.51,431.15 120.32,437.38 121.00,441.00
             121.00,441.00 129.00,443.00 129.00,443.00 Z
           M 117.04,494.75
           C 129.50,492.22 153.37,503.05 161.90,512.04
             165.12,515.44 174.62,528.99 168.69,532.98
             166.85,534.21 163.18,534.00 161.00,534.00
             161.00,534.00 135.00,534.00 135.00,534.00
             130.85,533.99 126.75,534.13 123.04,531.91
             115.91,527.65 109.17,508.84 111.65,501.00
             112.75,497.53 114.04,496.46 117.04,494.75 Z
           M 372.00,494.43
           C 385.14,493.16 384.62,503.53 382.49,513.00
             381.67,516.64 379.95,520.70 378.22,524.00
             373.36,533.24 369.86,533.98 360.00,534.00
             360.00,534.00 333.00,534.00 333.00,534.00
             330.53,534.00 326.44,534.32 324.61,532.40
             320.94,528.56 328.59,516.31 331.38,513.17
             341.43,501.86 357.52,496.59 372.00,494.43 Z
           M 190.13,522.88
           C 196.75,522.94 195.34,530.17 191.87,531.04
             188.12,531.97 184.55,526.36 190.13,522.88 Z
           M 211.21,522.88
           C 217.66,522.94 217.59,529.79 213.78,531.21
             209.40,532.83 205.41,526.63 211.21,522.88 Z
           M 234.13,523.21
           C 241.01,522.17 240.58,529.21 237.69,530.93
             234.06,533.10 228.03,528.17 234.13,523.21 Z
           M 259.01,522.96
           C 265.53,523.23 264.38,530.13 260.87,531.34
             256.76,532.77 252.08,526.60 259.01,522.96 Z
           M 279.31,523.08
           C 285.93,521.63 286.87,528.95 282.86,530.87
             279.15,532.64 274.60,527.98 279.31,523.08 Z
           M 303.04,522.96
           C 309.93,523.24 308.22,530.24 304.87,531.29
             300.87,532.56 296.02,526.61 303.04,522.96 Z
           M 695.00,527.32
           C 656.19,536.03 654.99,590.53 692.00,601.21
             697.81,602.89 703.11,602.82 709.00,601.86
             737.59,597.16 750.06,562.03 731.67,540.00
             721.87,528.26 709.50,525.74 695.00,527.32 Z
           M 194.00,544.47
           C 194.00,544.47 227.00,545.00 227.00,545.00
             227.00,545.00 250.00,545.00 250.00,545.00
             250.00,545.00 264.00,544.00 264.00,544.00
             264.00,544.00 280.00,544.96 280.00,544.96
             280.00,544.96 291.00,544.00 291.00,544.00
             295.10,543.96 300.32,543.76 303.87,546.09
             308.90,549.38 308.87,556.80 303.87,560.07
             300.71,562.13 295.65,561.99 292.00,562.00
             292.00,562.00 201.00,562.00 201.00,562.00
             196.94,561.99 192.48,562.25 189.15,559.49
             184.36,555.53 183.92,546.98 194.00,544.47 Z
           M 808.09,562.84
           C 820.63,561.74 815.55,573.57 812.51,580.00
             811.37,582.42 809.56,586.14 806.79,586.95
             802.29,588.27 798.36,584.45 798.70,580.00
             799.13,574.37 803.16,565.56 808.09,562.84 Z
           M 339.00,595.00
           C 323.83,599.92 293.70,599.00 277.00,599.00
             277.00,599.00 185.00,599.00 185.00,599.00
             185.00,599.00 154.00,596.00 154.00,596.00
             154.00,596.00 153.00,623.00 153.00,623.00
             153.00,623.00 341.00,623.00 341.00,623.00
             337.70,615.18 339.00,603.59 339.00,595.00 Z
           M 745.00,605.00
           C 745.00,605.00 744.00,605.00 744.00,605.00
             744.00,605.00 745.00,606.00 745.00,606.00
             745.00,606.00 745.00,605.00 745.00,605.00 Z" />
  <path id="Selection"
        fill="white" stroke="white" stroke-width="1"
        d="M 368.00,395.00
           C 368.72,391.16 370.10,386.24 374.10,384.60
             376.40,383.65 379.25,384.41 381.96,382.98
             384.87,381.43 387.68,376.97 389.00,374.00
             393.54,363.79 381.10,365.05 384.37,356.00
             384.37,356.00 393.75,337.00 393.75,337.00
             396.29,331.93 398.05,327.64 402.30,323.66
             406.40,319.82 414.65,313.33 420.00,311.79
             426.76,309.84 434.32,311.35 441.00,312.79
             441.00,312.79 469.00,319.35 469.00,319.35
             469.00,319.35 477.00,322.34 477.00,322.34
             480.42,322.91 484.78,321.14 488.00,320.07
             488.00,320.07 507.00,313.88 507.00,313.88
             507.00,313.88 575.00,290.66 575.00,290.66
             584.54,287.35 598.93,280.42 609.00,281.18
             617.20,281.81 622.85,285.28 630.00,288.74
             630.00,288.74 657.00,301.14 657.00,301.14
             657.00,301.14 737.00,338.75 737.00,338.75
             750.06,345.28 767.47,352.37 777.96,362.17
             785.54,369.25 792.46,380.82 797.30,390.00
             811.52,417.04 818.97,450.66 821.09,481.00
             821.09,481.00 822.26,495.00 822.26,495.00
             822.83,498.39 824.73,501.49 824.62,505.00
             824.52,508.21 822.14,512.98 820.85,516.00
             820.85,516.00 812.20,536.00 812.20,536.00
             811.15,538.67 808.56,544.55 809.19,547.28
             810.50,553.02 812.99,549.00 813.00,562.00
             810.69,562.27 809.19,562.32 807.18,563.74
             803.57,566.30 798.23,577.55 799.21,581.96
             799.95,585.24 803.14,586.81 805.03,589.32
             808.73,594.22 808.22,597.74 806.00,603.00
             806.00,603.00 767.00,585.00 767.00,585.00
             771.46,562.82 772.40,546.26 760.07,526.00
             741.36,495.24 701.84,483.97 670.00,500.89
             655.54,508.57 646.50,519.82 639.00,534.00
             631.40,532.58 617.82,524.90 610.00,521.31
             610.00,521.31 555.00,495.25 555.00,495.25
             555.00,495.25 536.00,486.25 536.00,486.25
             534.06,485.28 529.13,483.27 528.11,481.51
             526.84,479.29 528.60,475.30 529.28,473.00
             531.39,465.88 532.02,461.37 532.26,454.00
             532.26,454.00 532.26,446.00 532.26,446.00
             529.78,412.17 502.27,385.40 469.00,381.84
             465.49,381.46 463.76,380.88 460.00,381.09
             437.48,382.38 417.98,393.75 405.00,412.00
             405.00,412.00 368.00,395.00 368.00,395.00 Z
           M 635.00,312.00
           C 632.26,306.49 627.09,303.97 622.00,300.81
             614.51,296.16 609.23,291.64 600.00,292.04
             593.40,292.33 584.23,297.03 578.00,299.72
             578.00,299.72 543.00,314.75 543.00,314.75
             543.00,314.75 519.00,324.77 519.00,324.77
             516.42,325.96 511.63,327.63 511.63,331.05
             511.63,335.69 519.42,339.05 523.00,340.69
             523.00,340.69 562.00,358.78 562.00,358.78
             564.91,360.15 576.46,367.11 578.00,362.89
             578.00,362.89 580.72,362.89 580.72,362.89
             580.72,362.89 595.00,349.99 595.00,349.99
             595.00,349.99 635.00,312.00 635.00,312.00 Z
           M 707.00,426.00
           C 707.00,426.00 727.05,375.00 727.05,375.00
             728.36,371.48 733.37,360.33 732.31,357.21
             731.27,354.15 725.78,352.53 723.00,351.22
             723.00,351.22 697.00,338.64 697.00,338.64
             697.00,338.64 664.00,323.14 664.00,323.14
             660.98,321.79 653.97,317.71 651.00,318.13
             646.62,318.73 639.98,327.64 636.93,331.00
             636.93,331.00 612.92,358.00 612.92,358.00
             608.27,363.05 601.19,369.58 599.00,376.00
             599.00,376.00 619.00,385.69 619.00,385.69
             619.00,385.69 672.00,410.31 672.00,410.31
             672.00,410.31 707.00,426.00 707.00,426.00 Z
           M 418.00,327.32
           C 415.34,327.92 412.49,328.57 410.17,330.08
             405.79,332.93 400.60,341.58 402.74,346.91
             405.19,353.01 420.69,358.93 427.00,358.10
             434.69,357.10 452.18,345.53 446.82,336.30
             441.85,327.72 426.78,326.36 418.00,327.32 Z
           M 230.00,348.42
           C 230.00,348.42 290.00,349.00 290.00,349.00
             290.00,349.00 305.00,350.00 305.00,350.00
             311.29,350.07 321.14,350.48 327.00,352.55
             333.48,354.83 339.25,358.53 343.47,364.00
             352.03,375.07 358.29,408.08 362.72,423.00
             362.72,423.00 372.08,452.00 372.08,452.00
             374.53,456.22 379.46,460.04 382.66,464.00
             385.47,467.48 388.82,474.70 390.25,479.00
             393.21,487.91 395.37,507.61 394.96,517.00
             394.96,517.00 394.00,530.00 394.00,530.00
             394.00,530.00 394.00,557.00 394.00,557.00
             393.99,566.17 391.14,576.34 382.08,580.84
             376.56,583.28 368.31,580.77 362.00,580.84
             362.00,580.84 344.00,582.00 344.00,582.00
             344.00,582.00 328.00,581.02 328.00,581.02
             328.00,581.02 310.00,582.00 310.00,582.00
             310.00,582.00 301.00,581.34 301.00,581.34
             301.00,581.34 290.00,581.96 290.00,581.96
             290.00,581.96 277.00,581.04 277.00,581.04
             277.00,581.04 261.00,581.04 261.00,581.04
             261.00,581.04 249.00,582.00 249.00,582.00
             249.00,582.00 233.00,581.34 233.00,581.34
             233.00,581.34 224.00,582.00 224.00,582.00
             224.00,582.00 188.00,582.00 188.00,582.00
             188.00,582.00 173.00,581.18 173.00,581.18
             173.00,581.18 131.00,581.18 131.00,581.18
             125.66,581.07 119.03,582.87 114.00,581.18
             103.22,578.34 100.02,564.69 100.00,555.00
             99.97,535.09 98.36,497.67 105.06,480.00
             107.49,473.62 111.74,466.11 116.30,461.04
             116.30,461.04 125.03,452.82 125.03,452.82
             127.28,449.75 134.01,429.91 135.65,425.00
             135.65,425.00 147.00,391.00 147.00,391.00
             151.65,377.06 155.88,363.84 169.00,355.39
             177.06,350.19 179.62,351.63 188.00,350.83
             188.00,350.83 213.00,349.00 213.00,349.00
             218.70,348.97 224.34,349.23 230.00,348.42 Z
           M 364.00,453.00
           C 364.00,453.00 346.86,392.00 346.86,392.00
             343.68,382.85 341.59,373.71 333.00,367.85
             324.57,362.10 316.52,363.11 307.00,363.00
             307.00,363.00 292.00,362.00 292.00,362.00
             292.00,362.00 236.00,361.00 236.00,361.00
             236.00,361.00 221.00,362.00 221.00,362.00
             221.00,362.00 204.00,362.00 204.00,362.00
             204.00,362.00 185.00,363.00 185.00,363.00
             167.43,363.03 161.11,373.11 155.20,388.00
             155.20,388.00 139.57,436.00 139.57,436.00
             139.57,436.00 134.00,453.00 134.00,453.00
             134.00,453.00 364.00,453.00 364.00,453.00 Z
           M 747.00,365.00
           C 747.00,365.00 739.34,390.00 739.34,390.00
             739.34,390.00 732.50,413.00 732.50,413.00
             731.19,417.08 726.50,430.25 727.33,433.79
             728.28,437.83 737.45,440.68 741.00,442.31
             741.00,442.31 777.00,458.85 777.00,458.85
             780.84,460.46 787.86,463.58 791.57,460.40
             797.65,455.19 791.95,437.66 790.15,431.00
             786.14,416.12 776.25,386.92 765.90,376.04
             761.13,371.03 753.63,366.89 747.00,365.00 Z
           M 142.00,449.00
           C 142.39,441.94 146.46,432.80 148.95,426.00
             148.95,426.00 161.81,391.00 161.81,391.00
             164.14,384.86 166.25,375.59 172.02,372.01
             177.41,368.66 185.89,369.23 192.00,368.96
             192.00,368.96 203.00,368.00 203.00,368.00
             203.00,368.00 226.00,368.00 226.00,368.00
             226.00,368.00 239.00,367.00 239.00,367.00
             239.00,367.00 257.00,367.00 257.00,367.00
             257.00,367.00 274.00,368.00 274.00,368.00
             274.00,368.00 295.00,368.00 295.00,368.00
             295.00,368.00 309.00,369.00 309.00,369.00
             315.00,369.07 325.00,368.82 329.96,372.51
             335.44,376.60 337.84,387.53 340.00,394.00
             340.00,394.00 357.00,449.00 357.00,449.00
             357.00,449.00 348.00,448.09 348.00,448.09
             348.00,448.09 325.00,446.91 325.00,446.91
             325.00,446.91 314.00,446.00 314.00,446.00
             314.00,446.00 287.00,445.00 287.00,445.00
             287.00,445.00 270.00,444.00 270.00,444.00
             270.00,444.00 227.00,444.00 227.00,444.00
             227.00,444.00 210.00,445.04 210.00,445.04
             210.00,445.04 198.00,445.04 198.00,445.04
             198.00,445.04 187.00,446.00 187.00,446.00
             187.00,446.00 173.00,447.00 173.00,447.00
             173.00,447.00 164.00,447.00 164.00,447.00
             164.00,447.00 142.00,449.00 142.00,449.00 Z
           M 661.23,434.61
           C 653.14,440.65 672.91,447.03 673.96,447.14
             675.85,447.35 677.49,446.69 678.16,444.79
             680.28,438.69 665.69,433.83 661.23,434.61 Z
           M 118.02,494.47
           C 103.83,500.11 115.24,526.36 122.09,531.30
             125.45,533.72 129.04,533.95 133.00,534.00
             133.00,534.00 161.00,534.00 161.00,534.00
             163.18,534.00 166.85,534.21 168.69,532.98
             174.62,528.99 165.12,515.44 161.90,512.04
             152.89,502.55 131.21,493.39 118.02,494.47 Z
           M 373.00,494.30
           C 358.15,496.38 343.01,501.31 332.21,512.29
             329.15,515.39 320.76,528.37 324.61,532.40
             326.32,534.19 329.72,533.98 332.00,534.00
             332.00,534.00 360.00,534.00 360.00,534.00
             369.86,533.98 373.36,533.24 378.22,524.00
             379.95,520.70 381.67,516.64 382.49,513.00
             384.48,504.17 385.37,493.83 373.00,494.30 Z
           M 191.00,522.74
           C 184.73,524.81 187.31,531.14 191.00,531.14
             194.81,531.14 197.19,524.44 191.00,522.74 Z
           M 212.04,522.74
           C 206.10,524.77 208.07,531.14 212.04,531.46
             216.64,531.83 218.99,524.59 212.04,522.74 Z
           M 235.01,522.93
           C 228.13,526.32 232.70,532.61 236.87,531.29
             240.27,530.22 241.66,523.48 235.01,522.93 Z
           M 259.91,522.86
           C 252.00,525.03 256.12,532.99 260.87,531.34
             264.24,530.18 265.39,524.48 259.91,522.86 Z
           M 280.13,522.74
           C 274.56,526.22 278.07,532.02 281.96,531.18
             286.25,530.25 287.11,523.03 280.13,522.74 Z
           M 303.97,522.86
           C 296.47,524.87 299.68,531.81 303.97,531.46
             307.78,531.16 310.24,524.65 303.97,522.86 Z
           M 195.00,544.31
           C 183.24,546.60 184.69,555.80 189.15,559.49
             192.48,562.25 196.94,561.99 201.00,562.00
             201.00,562.00 292.00,562.00 292.00,562.00
             295.65,561.99 300.71,562.13 303.87,560.07
             308.87,556.80 308.90,549.38 303.87,546.09
             300.32,543.76 295.10,543.96 291.00,544.00
             291.00,544.00 277.00,544.96 277.00,544.96
             277.00,544.96 267.00,544.01 267.00,544.01
             267.00,544.01 250.00,545.00 250.00,545.00
             250.00,545.00 227.00,545.00 227.00,545.00
             227.00,545.00 212.00,545.00 212.00,545.00
             212.00,545.00 195.00,544.31 195.00,544.31 Z" />
</svg>
