<?xml version="1.0" encoding="UTF-8" standalone="no"?>
<!DOCTYPE svg PUBLIC "-//W3C//DTD SVG 20010904//EN"
              "http://www.w3.org/TR/2001/REC-SVG-20010904/DTD/svg10.dtd">

<svg xmlns="http://www.w3.org/2000/svg"
     width="10.9028in" height="11.0278in"
     viewBox="0 0 785 794">
  <path id="Selection"
        fill="black" stroke="black" stroke-width="1"
        d="M 370.00,0.21
           C 370.00,0.21 408.00,0.21 408.00,0.21
             408.00,0.21 420.00,0.91 420.00,0.91
             446.14,2.70 471.73,6.70 497.00,13.86
             590.63,40.39 669.57,99.08 722.31,181.00
             739.69,208.00 752.95,236.82 763.69,267.00
             774.33,296.90 781.77,332.34 784.09,364.00
             784.09,364.00 785.00,374.00 785.00,374.00
             785.00,374.00 785.00,417.00 785.00,417.00
             785.00,417.00 784.09,429.00 784.09,429.00
             781.58,463.34 773.95,498.47 762.66,531.00
             732.97,616.55 670.76,693.04 593.00,739.40
             564.19,756.57 533.12,769.71 501.00,779.28
             478.99,785.84 435.64,793.96 413.00,794.00
             413.00,794.00 370.00,794.00 370.00,794.00
             370.00,794.00 360.00,793.09 360.00,793.09
             324.58,790.61 288.20,781.95 255.00,769.42
             216.54,754.92 179.94,734.50 148.00,708.54
             104.80,673.44 68.80,629.51 43.26,580.00
             -10.05,476.69 -14.56,350.22 30.01,243.00
             72.92,139.77 157.76,59.14 263.00,21.69
             284.28,14.12 310.65,7.56 333.00,4.27
             333.00,4.27 359.00,1.17 359.00,1.17
             359.00,1.17 370.00,0.21 370.00,0.21 Z
           M 381.00,35.28
           C 381.00,35.28 353.00,37.28 353.00,37.28
             331.05,39.90 309.13,44.46 288.00,51.02
             199.50,78.53 123.10,141.93 79.78,224.00
             58.28,264.74 45.67,304.37 39.72,350.00
             39.72,350.00 37.00,380.00 37.00,380.00
             37.00,380.00 37.00,413.00 37.00,413.00
             37.00,413.00 37.91,423.00 37.91,423.00
             39.45,445.40 43.00,467.29 48.85,489.00
             68.19,560.72 108.96,625.70 166.00,673.56
             198.66,700.97 231.26,719.43 271.00,734.42
             298.90,744.95 332.31,752.00 362.00,754.96
             362.00,754.96 371.00,754.96 371.00,754.96
             371.00,754.96 381.00,756.00 381.00,756.00
             432.90,756.60 483.06,748.08 531.00,727.57
             614.73,691.75 682.78,622.67 718.57,539.00
             739.23,490.72 748.61,438.34 748.00,386.00
             748.00,386.00 747.04,375.00 747.04,375.00
             740.22,218.33 625.34,79.06 472.00,44.35
             458.04,41.19 430.82,36.17 417.00,36.00
             417.00,36.00 381.00,35.28 381.00,35.28 Z
           M 309.00,144.65
           C 318.28,142.73 324.32,147.12 332.00,151.81
             332.00,151.81 369.00,175.41 369.00,175.41
             374.41,179.17 383.53,183.99 384.62,191.00
             385.66,197.69 379.07,205.84 375.42,211.00
             375.42,211.00 346.52,253.00 346.52,253.00
             342.04,259.07 332.29,268.97 336.17,277.00
             339.39,283.65 356.18,300.19 362.00,306.00
             362.00,306.00 380.00,323.00 380.00,323.00
             380.00,323.00 416.00,357.41 416.00,357.41
             423.81,363.85 423.65,360.84 429.00,365.23
             429.00,365.23 457.00,391.91 457.00,391.91
             457.00,391.91 527.00,457.91 527.00,457.91
             527.00,457.91 586.00,513.91 586.00,513.91
             586.00,513.91 619.90,546.00 619.90,546.00
             621.99,548.31 623.35,550.15 624.65,553.00
             630.84,566.57 622.89,575.50 614.09,585.00
             614.09,585.00 601.17,599.00 601.17,599.00
             592.04,609.09 583.13,621.74 568.00,620.96
             557.22,620.40 549.11,610.11 542.00,603.00
             542.00,603.00 494.72,556.42 494.72,556.42
             494.72,556.42 419.00,481.01 419.00,481.01
             419.00,481.01 361.02,424.00 361.02,424.00
             354.08,416.76 357.47,416.94 350.96,410.00
             350.96,410.00 315.99,375.91 315.99,375.91
             315.99,375.91 298.00,358.01 298.00,358.01
             294.29,354.40 285.33,345.33 280.00,345.90
             274.11,346.52 269.96,354.47 267.19,359.00
             267.19,359.00 243.31,397.00 243.31,397.00
             237.55,405.90 231.67,419.03 219.00,413.02
             212.68,410.01 201.70,400.95 196.00,396.25
             196.00,396.25 166.00,370.01 166.00,370.01
             161.16,365.29 152.46,358.95 151.23,352.00
             149.75,343.70 154.71,338.43 159.00,332.00
             159.00,332.00 180.19,299.00 180.19,299.00
             180.19,299.00 202.55,264.00 202.55,264.00
             202.55,264.00 220.53,235.00 220.53,235.00
             220.53,235.00 238.91,216.01 238.91,216.01
             238.91,216.01 272.00,181.00 272.00,181.00
             272.00,181.00 281.09,171.00 281.09,171.00
             281.09,171.00 291.83,160.00 291.83,160.00
             297.04,154.24 301.64,147.74 309.00,144.65 Z
           M 312.00,159.70
           C 306.90,162.18 303.89,166.98 299.99,171.00
             299.99,171.00 272.91,200.00 272.91,200.00
             272.91,200.00 232.67,242.00 232.67,242.00
             232.67,242.00 194.14,303.00 194.14,303.00
             194.14,303.00 176.00,331.00 176.00,331.00
             174.28,333.58 167.86,342.68 167.31,345.00
             166.07,350.20 173.68,355.00 177.00,358.09
             177.00,358.09 210.00,388.13 210.00,388.13
             212.84,390.57 220.90,398.46 224.79,396.84
             227.26,395.80 232.86,385.76 234.58,383.00
             234.58,383.00 257.58,346.00 257.58,346.00
             268.92,327.79 297.79,294.81 312.72,276.00
             312.72,276.00 340.29,236.00 340.29,236.00
             340.29,236.00 360.58,207.00 360.58,207.00
             362.24,204.65 367.47,197.80 367.41,195.17
             367.32,191.61 358.87,187.21 356.00,185.34
             356.00,185.34 326.00,166.05 326.00,166.05
             321.68,163.34 317.26,159.48 312.00,159.70 Z
           M 323.09,292.91
           C 318.18,295.11 313.33,301.87 309.72,306.00
             309.72,306.00 298.03,319.00 298.03,319.00
             296.11,321.11 293.33,323.89 293.54,327.00
             293.81,330.98 302.97,339.03 306.00,341.96
             306.00,341.96 344.00,379.00 344.00,379.00
             344.00,379.00 367.05,403.00 367.05,403.00
             369.17,405.42 372.42,411.16 376.04,409.83
             378.97,408.75 386.23,399.81 389.00,397.00
             389.00,397.00 402.02,383.00 402.02,383.00
             403.82,381.06 407.19,377.90 407.26,375.09
             407.34,371.87 396.69,362.63 394.04,360.18
             394.04,360.18 354.17,321.44 354.17,321.44
             354.17,321.44 334.00,301.00 334.00,301.00
             330.68,297.65 327.84,293.73 323.09,292.91 Z
           M 326.00,308.04
           C 327.72,307.56 327.99,307.11 330.00,307.49
             334.46,308.32 343.49,318.49 347.00,322.00
             347.00,322.00 372.00,347.00 372.00,347.00
             375.25,350.25 382.25,356.37 384.16,360.04
             388.93,369.17 384.31,381.49 375.00,385.64
             363.58,390.72 357.73,384.71 350.00,377.00
             350.00,377.00 339.00,366.00 339.00,366.00
             339.00,366.00 314.72,341.91 314.72,341.91
             311.99,339.01 307.84,335.16 307.45,331.00
             307.10,327.30 309.58,324.66 311.76,322.00
             315.89,316.96 320.55,311.62 326.00,308.04 Z
           M 420.00,438.00
           C 415.92,433.68 406.60,421.20 404.00,433.00
             411.78,438.70 413.40,446.24 420.00,438.00 Z
           M 422.00,451.00
           C 424.76,452.98 425.29,453.58 427.72,455.83
             433.78,461.45 436.32,457.54 435.95,454.99
             435.81,454.04 425.93,438.08 422.00,451.00 Z
           M 442.15,462.74
           C 435.17,467.27 448.67,477.08 451.85,476.26
             453.90,475.73 454.50,473.84 453.83,471.98
             452.34,467.85 446.45,462.91 442.15,462.74 Z" />
</svg>
