<?xml version="1.0" encoding="UTF-8" standalone="no"?>
<!DOCTYPE svg PUBLIC "-//W3C//DTD SVG 20010904//EN"
              "http://www.w3.org/TR/2001/REC-SVG-20010904/DTD/svg10.dtd">

<svg xmlns="http://www.w3.org/2000/svg"
     width="5.55556in" height="5.55556in"
     viewBox="0 0 400 400">
  <path id="Selection #1"
        fill="black" stroke="black" stroke-width="1"
        d="M 178.00,0.21
           C 178.00,0.21 214.00,0.21 214.00,0.21
             237.91,0.04 267.69,8.10 289.00,18.75
             318.20,33.35 343.52,54.84 363.11,81.00
             384.45,109.51 399.94,150.11 400.00,186.00
             400.00,186.00 400.00,216.00 400.00,216.00
             399.77,234.95 393.02,262.57 385.57,280.00
             369.33,317.99 338.26,352.50 303.00,373.80
             278.10,388.83 243.24,399.95 214.00,400.00
             214.00,400.00 184.00,400.00 184.00,400.00
             184.00,400.00 166.00,398.13 166.00,398.13
             117.59,391.41 78.88,367.39 46.85,331.00
             32.83,315.08 21.04,296.78 13.20,277.00
             6.07,259.00 0.03,233.36 0.00,214.00
             0.00,214.00 0.00,186.00 0.00,186.00
             0.03,167.06 5.74,142.72 12.42,125.00
             30.33,77.58 74.32,33.38 121.00,14.01
             142.65,5.03 155.56,3.63 178.00,0.21 Z
           M 184.00,9.28
           C 161.41,12.53 150.05,13.47 128.00,22.20
             81.70,40.55 41.29,80.87 22.60,127.00
             4.11,172.67 4.01,229.58 23.43,275.00
             44.50,324.28 87.07,364.37 138.00,381.33
             152.62,386.20 173.62,390.82 189.00,391.00
             229.19,391.47 254.80,387.42 291.00,368.74
             311.18,358.33 329.22,342.96 344.15,326.00
             368.55,298.30 384.05,265.61 389.13,229.00
             390.05,222.40 390.99,215.67 391.00,209.00
             391.00,209.00 391.00,189.00 391.00,189.00
             390.77,170.05 384.02,142.43 376.57,125.00
             363.22,93.76 341.16,66.23 314.00,45.89
             295.22,31.83 274.53,21.94 252.00,15.58
             232.20,9.99 204.49,7.38 184.00,9.28 Z
           M 175.00,30.00
           C 175.00,30.00 225.00,30.00 225.00,30.00
             225.00,30.00 225.00,78.00 225.00,78.00
             225.00,78.00 276.00,78.00 276.00,78.00
             276.00,78.00 276.00,128.00 276.00,128.00
             276.00,128.00 225.00,128.00 225.00,128.00
             225.00,128.00 225.00,180.00 225.00,180.00
             225.00,180.00 175.00,180.00 175.00,180.00
             175.00,180.00 175.00,128.00 175.00,128.00
             175.00,128.00 126.00,128.00 126.00,128.00
             126.00,128.00 126.00,78.00 126.00,78.00
             126.00,78.00 175.00,78.00 175.00,78.00
             175.00,78.00 175.00,30.00 175.00,30.00 Z
           M 48.00,143.00
           C 46.49,136.38 43.86,131.24 41.40,125.00
             40.12,121.75 38.58,118.60 40.47,115.21
             43.17,110.38 53.83,109.83 59.00,108.80
             59.00,108.80 76.00,106.04 76.00,106.04
             88.02,105.66 98.95,112.21 102.56,124.00
             103.45,126.90 104.07,129.95 103.81,133.00
             102.86,144.49 95.92,152.18 85.00,155.25
             82.65,155.92 77.66,157.33 75.51,155.94
             73.22,154.46 71.62,146.73 71.00,144.00
             71.00,144.00 82.00,140.70 82.00,140.70
             90.99,136.04 90.61,125.42 81.00,121.74
             75.35,119.57 62.71,122.15 57.00,124.00
             57.00,124.00 66.01,147.00 66.01,147.00
             66.01,147.00 79.00,179.00 79.00,179.00
             89.77,174.28 97.61,174.87 109.00,175.00
             136.34,175.33 162.17,197.77 170.48,223.00
             181.52,256.50 167.25,292.66 136.00,309.22
             122.09,316.59 113.27,317.17 98.00,317.00
             86.96,316.87 76.39,312.99 67.00,307.40
             32.50,286.83 20.99,240.71 43.36,207.00
             48.48,199.28 56.37,189.68 65.00,186.00
             65.00,186.00 61.00,174.00 61.00,174.00
             61.00,174.00 16.00,218.00 16.00,218.00
             16.00,218.00 16.00,203.00 16.00,203.00
             16.07,193.16 19.79,192.38 25.88,185.70
             25.88,185.70 53.00,158.00 53.00,158.00
             53.00,158.00 34.00,159.00 34.00,159.00
             34.00,159.00 20.00,158.00 20.00,158.00
             20.00,158.00 24.00,143.00 24.00,143.00
             24.00,143.00 48.00,143.00 48.00,143.00 Z
           M 256.00,281.00
           C 256.00,281.00 222.00,281.00 222.00,281.00
             219.46,280.99 215.52,281.32 213.60,279.40
             211.59,277.39 211.98,272.69 212.00,270.00
             212.01,267.87 211.75,264.49 213.60,263.02
             216.41,260.79 221.81,263.85 223.57,257.94
             225.53,251.38 223.09,231.65 223.00,224.00
             222.94,218.43 222.99,214.46 224.49,209.00
             227.69,197.35 236.23,193.83 247.00,191.42
             247.00,191.42 275.00,187.07 275.00,187.07
             282.70,186.36 292.59,185.92 299.00,181.36
             304.97,177.12 309.50,170.66 314.00,165.00
             314.00,165.00 337.17,137.04 337.17,137.04
             345.40,128.30 355.07,123.37 366.00,119.00
             366.00,119.00 373.00,136.00 373.00,136.00
             363.05,139.98 355.53,143.86 348.17,152.00
             339.04,162.11 334.21,175.27 326.00,186.00
             326.00,186.00 384.00,186.00 384.00,186.00
             384.00,208.97 384.85,222.00 379.11,245.00
             379.11,245.00 372.58,266.00 372.58,266.00
             372.58,266.00 367.00,280.00 367.00,280.00
             367.00,280.00 361.00,280.00 361.00,280.00
             361.00,266.99 358.62,254.58 350.47,244.00
             326.58,212.99 281.02,216.22 262.32,251.00
             257.26,260.41 256.00,270.48 256.00,281.00 Z
           M 73.00,203.00
           C 63.91,207.30 56.51,218.63 53.36,228.00
             51.76,232.75 49.83,243.12 50.18,248.00
             52.01,273.61 72.11,297.68 99.00,298.00
             115.28,298.19 127.62,295.66 139.91,283.83
             172.96,252.00 151.93,193.07 104.00,193.00
             93.79,192.98 96.50,193.09 87.00,195.00
             88.10,200.84 91.69,207.46 94.14,213.00
             94.14,213.00 103.36,232.90 103.36,232.90
             106.48,237.77 112.67,239.16 112.84,246.00
             113.01,253.07 102.48,261.86 94.43,251.90
             92.59,249.62 90.75,241.11 89.00,237.00
             89.00,237.00 73.00,203.00 73.00,203.00 Z
           M 237.00,209.39
           C 220.67,214.71 228.16,238.41 244.00,234.44
             255.39,231.59 256.96,217.94 248.90,211.43
             245.32,208.55 241.27,208.81 237.00,209.39 Z
           M 302.00,228.46
           C 308.88,227.51 316.39,228.20 323.00,230.36
             364.65,243.95 366.15,303.40 325.00,318.77
             320.28,320.53 313.03,322.19 308.00,321.91
             297.97,321.34 286.83,318.14 279.00,311.67
             257.76,294.13 256.11,260.42 276.09,241.17
             283.61,233.93 291.99,230.63 302.00,228.46 Z
           M 304.00,250.33
           C 299.84,251.32 296.40,252.69 293.00,255.39
             282.01,264.11 280.48,281.53 290.33,291.70
             296.26,297.83 305.72,300.13 314.00,298.67
             330.80,295.73 338.42,274.90 329.44,261.01
             323.83,252.33 313.87,249.24 304.00,250.33 Z" />
</svg>
