<?xml version="1.0" encoding="UTF-8" standalone="no"?>
<!DOCTYPE svg PUBLIC "-//W3C//DTD SVG 20010904//EN"
              "http://www.w3.org/TR/2001/REC-SVG-20010904/DTD/svg10.dtd">

<svg xmlns="http://www.w3.org/2000/svg"
     width="11.6389in" height="11.7361in"
     viewBox="0 0 838 845">
  <path id="Selection"
        fill="black" stroke="black" stroke-width="1"
        d="M 397.00,0.21
           C 397.00,0.21 423.00,0.21 423.00,0.21
             446.20,0.00 469.10,1.94 492.00,5.75
             605.46,24.66 705.23,90.34 769.00,186.00
             779.39,201.58 789.21,218.05 797.22,235.00
             815.26,273.19 828.31,314.11 834.13,356.00
             834.13,356.00 838.00,395.00 838.00,395.00
             838.00,395.00 838.00,450.00 838.00,450.00
             838.00,450.00 837.09,462.00 837.09,462.00
             835.00,490.55 829.61,517.52 821.71,545.00
             785.69,670.29 689.07,774.19 567.00,819.77
             535.20,831.65 501.75,839.55 468.00,843.16
             468.00,843.16 447.00,845.00 447.00,845.00
             447.00,845.00 388.00,845.00 388.00,845.00
             388.00,845.00 344.00,839.42 344.00,839.42
             315.70,834.32 294.90,828.66 268.00,818.42
             173.67,782.54 95.26,712.17 48.22,623.00
             48.22,623.00 38.31,604.00 38.31,604.00
             16.96,557.51 4.40,508.97 0.91,458.00
             0.91,458.00 0.00,446.00 0.00,446.00
             0.00,446.00 0.00,395.00 0.00,395.00
             0.00,395.00 0.91,385.00 0.91,385.00
             3.80,343.67 13.15,302.54 28.45,264.00
             73.74,149.88 164.96,62.24 281.00,22.08
             306.04,13.41 336.68,6.56 363.00,3.28
             363.00,3.28 384.00,1.09 384.00,1.09
             384.00,1.09 397.00,0.21 397.00,0.21 Z
           M 398.00,34.14
           C 398.00,34.14 386.00,35.17 386.00,35.17
             386.00,35.17 361.00,38.27 361.00,38.27
             338.83,41.54 313.17,48.00 292.00,55.34
             196.35,88.54 116.38,159.84 72.26,251.00
             49.33,298.36 37.49,348.73 33.91,401.00
             33.91,401.00 33.00,411.00 33.00,411.00
             31.56,534.64 82.35,650.25 180.00,728.00
             216.44,757.01 255.90,777.84 300.00,792.49
             329.01,802.13 359.60,807.94 390.00,810.96
             390.00,810.96 399.00,810.96 399.00,810.96
             399.00,810.96 409.00,812.00 409.00,812.00
             468.20,812.69 530.74,800.71 584.00,774.25
             584.00,774.25 607.00,762.69 607.00,762.69
             627.83,751.25 654.32,732.61 672.00,716.83
             722.50,671.75 762.30,613.31 784.00,549.00
             795.24,515.67 801.68,481.01 804.09,446.00
             804.09,446.00 805.00,434.00 805.00,434.00
             805.00,434.00 805.00,408.00 805.00,408.00
             805.00,408.00 804.09,398.00 804.09,398.00
             802.42,373.73 799.07,349.58 792.88,326.00
             782.85,287.78 769.96,255.01 749.55,221.00
             694.53,129.29 602.01,62.80 497.00,41.80
             480.02,38.40 463.25,36.12 446.00,34.91
             446.00,34.91 434.00,34.14 434.00,34.14
             434.00,34.14 398.00,34.14 398.00,34.14 Z
           M 418.00,155.00
           C 423.56,157.69 426.20,162.34 430.08,167.00
             435.08,173.01 440.40,178.53 446.00,183.99
             464.10,201.64 488.49,213.29 514.00,213.00
             528.49,212.83 550.81,206.72 564.00,200.69
             564.00,200.69 588.00,188.70 588.00,188.70
             589.78,188.13 591.16,188.06 593.00,188.18
             596.50,188.41 611.27,190.27 613.57,191.98
             615.89,193.71 616.28,197.34 616.75,200.00
             618.07,207.51 619.08,212.27 619.00,220.00
             619.00,220.00 615.13,247.00 615.13,247.00
             615.13,247.00 611.17,278.00 611.17,278.00
             611.17,278.00 609.91,299.00 609.91,299.00
             609.91,299.00 609.00,309.00 609.00,309.00
             609.00,309.00 609.00,337.00 609.00,337.00
             609.00,337.00 610.00,349.00 610.00,349.00
             610.00,349.00 610.00,358.00 610.00,358.00
             610.00,358.00 615.15,404.00 615.15,404.00
             615.15,404.00 621.09,453.00 621.09,453.00
             621.09,453.00 622.00,464.00 622.00,464.00
             622.12,488.89 622.54,508.20 617.55,533.00
             607.00,585.45 578.67,633.39 541.00,671.00
             516.74,695.22 480.53,721.67 449.00,735.42
             441.37,738.75 423.83,747.91 416.00,746.06
             408.81,744.37 393.95,737.65 387.00,734.26
             368.10,725.04 349.81,714.58 333.00,701.87
             310.47,684.84 292.46,668.08 274.80,646.00
             248.91,613.63 228.83,574.90 220.80,534.00
             215.54,507.15 215.96,493.68 216.00,467.00
             216.00,467.00 216.91,455.00 216.91,455.00
             216.91,455.00 225.72,383.00 225.72,383.00
             225.72,383.00 229.00,344.00 229.00,344.00
             229.00,344.00 229.00,302.00 229.00,302.00
             229.00,302.00 228.09,292.00 228.09,292.00
             228.09,292.00 223.58,249.00 223.58,249.00
             223.58,249.00 219.17,221.00 219.17,221.00
             218.79,216.49 220.85,204.84 221.80,200.00
             222.25,197.71 222.85,193.50 224.72,191.98
             226.44,190.58 232.63,190.07 235.00,189.73
             237.73,189.34 246.81,187.98 249.00,188.31
             252.75,188.87 262.20,194.65 266.00,196.69
             282.40,205.50 309.32,213.21 328.00,213.00
             357.96,212.66 382.80,195.44 402.17,174.00
             407.74,167.83 413.24,161.86 418.00,155.00 Z
           M 420.00,262.00
           C 415.84,266.82 410.62,286.02 408.58,293.00
             408.58,293.00 391.86,344.00 391.86,344.00
             391.86,344.00 386.00,362.00 386.00,362.00
             385.12,364.62 384.19,368.44 381.73,369.98
             379.76,371.21 376.28,371.00 374.00,371.00
             374.00,371.00 301.00,371.00 301.00,371.00
             294.55,371.00 273.73,370.12 269.00,372.00
             269.00,372.00 330.00,416.42 330.00,416.42
             330.00,416.42 361.00,438.00 361.00,438.00
             361.00,438.00 351.33,468.00 351.33,468.00
             351.33,468.00 333.28,524.00 333.28,524.00
             333.28,524.00 326.00,548.00 326.00,548.00
             326.00,548.00 352.00,529.42 352.00,529.42
             352.00,529.42 393.00,499.85 393.00,499.85
             393.00,499.85 411.00,486.71 411.00,486.71
             411.00,486.71 419.00,482.28 419.00,482.28
             419.00,482.28 427.00,486.58 427.00,486.58
             427.00,486.58 445.00,499.58 445.00,499.58
             445.00,499.58 490.00,532.00 490.00,532.00
             490.00,532.00 512.00,547.00 512.00,547.00
             512.00,547.00 503.33,518.00 503.33,518.00
             503.33,518.00 487.33,469.00 487.33,469.00
             487.33,469.00 480.33,448.00 480.33,448.00
             480.33,448.00 478.48,439.62 478.48,439.62
             478.48,439.62 486.00,432.85 486.00,432.85
             486.00,432.85 503.00,420.37 503.00,420.37
             503.00,420.37 544.00,390.42 544.00,390.42
             544.00,390.42 570.00,371.00 570.00,371.00
             570.00,371.00 455.00,371.00 455.00,371.00
             455.00,371.00 445.33,340.00 445.33,340.00
             445.33,340.00 429.67,292.00 429.67,292.00
             429.67,292.00 420.00,262.00 420.00,262.00 Z
           M 513.00,547.00
           C 513.00,547.00 512.00,547.00 512.00,547.00
             512.00,547.00 513.00,548.00 513.00,548.00
             513.00,548.00 513.00,547.00 513.00,547.00 Z" />
</svg>
