<?xml version="1.0" encoding="UTF-8" standalone="no"?>
<!DOCTYPE svg PUBLIC "-//W3C//DTD SVG 20010904//EN"
              "http://www.w3.org/TR/2001/REC-SVG-20010904/DTD/svg10.dtd">

<svg xmlns="http://www.w3.org/2000/svg"
     width="11.3889in" height="11.4861in"
     viewBox="0 0 820 827">
  <path id="Selection"
        fill="black" stroke="black" stroke-width="1"
        d="M 392.00,0.21
           C 392.00,0.21 423.00,0.21 423.00,0.21
             423.00,0.21 434.00,1.04 434.00,1.04
             434.00,1.04 444.00,1.04 444.00,1.04
             464.82,3.15 485.64,6.28 506.00,11.12
             617.04,37.48 710.94,109.01 767.57,208.00
             783.62,236.05 795.38,266.04 804.42,297.00
             812.14,323.42 817.17,350.54 819.09,378.00
             819.09,378.00 820.00,388.00 820.00,388.00
             820.00,388.00 820.00,437.00 820.00,437.00
             820.00,437.00 819.09,449.00 819.09,449.00
             816.62,482.78 808.91,518.95 797.92,551.00
             755.39,675.02 654.90,771.15 530.00,809.98
             506.11,817.40 458.61,826.96 434.00,827.00
             434.00,827.00 383.00,827.00 383.00,827.00
             383.00,827.00 339.00,821.42 339.00,821.42
             311.96,816.55 289.68,810.76 264.00,800.81
             216.19,782.29 173.13,756.27 135.00,721.83
             63.68,657.42 17.19,567.82 3.43,473.00
             -0.56,445.55 -0.32,417.70 0.00,390.00
             0.00,390.00 0.91,380.00 0.91,380.00
             3.80,338.67 13.15,297.54 28.45,259.00
             72.80,147.24 162.40,61.39 276.00,22.08
             301.04,13.41 331.68,6.56 358.00,3.28
             358.00,3.28 379.00,1.09 379.00,1.09
             379.00,1.09 392.00,0.21 392.00,0.21 Z
           M 385.00,16.14
           C 385.00,16.14 373.00,17.17 373.00,17.17
             373.00,17.17 348.00,20.27 348.00,20.27
             325.83,23.54 300.17,30.00 279.00,37.34
             180.60,71.49 99.60,144.31 54.26,238.00
             9.10,331.30 2.46,447.04 36.34,545.00
             60.80,615.72 105.68,679.32 164.00,726.20
             200.66,755.66 242.46,777.70 287.00,792.49
             316.01,802.13 346.60,807.94 377.00,810.96
             377.00,810.96 386.00,810.96 386.00,810.96
             386.00,810.96 396.00,812.00 396.00,812.00
             396.00,812.00 423.00,812.00 423.00,812.00
             423.00,812.00 435.00,811.09 435.00,811.09
             485.99,807.60 534.88,795.59 581.00,773.26
             621.62,753.59 659.65,727.73 690.96,695.00
             732.00,652.10 764.21,601.22 783.66,545.00
             795.24,511.51 801.67,476.26 804.09,441.00
             804.09,441.00 805.00,429.00 805.00,429.00
             805.00,429.00 805.00,397.00 805.00,397.00
             805.00,397.00 804.09,385.00 804.09,385.00
             802.77,365.83 800.33,346.88 796.55,328.00
             780.57,248.11 736.09,172.45 676.00,117.93
             643.09,88.06 605.17,62.97 564.00,45.99
             526.73,30.61 492.10,21.84 452.00,17.83
             452.00,17.83 431.00,16.14 431.00,16.14
             431.00,16.14 385.00,16.14 385.00,16.14 Z
           M 409.00,146.00
           C 414.56,148.69 417.20,153.34 421.08,158.00
             426.08,164.01 431.40,169.53 437.00,174.99
             455.10,192.64 479.49,204.29 505.00,204.00
             519.49,203.83 541.81,197.72 555.00,191.69
             555.00,191.69 579.00,179.70 579.00,179.70
             580.78,179.13 582.16,179.06 584.00,179.18
             587.50,179.41 602.27,181.27 604.57,182.98
             606.89,184.71 607.28,188.34 607.75,191.00
             609.07,198.51 610.08,203.27 610.00,211.00
             610.00,211.00 606.13,238.00 606.13,238.00
             606.13,238.00 602.17,269.00 602.17,269.00
             602.17,269.00 600.91,290.00 600.91,290.00
             600.91,290.00 600.00,300.00 600.00,300.00
             600.00,300.00 600.00,328.00 600.00,328.00
             600.00,328.00 601.00,340.00 601.00,340.00
             601.00,340.00 601.00,349.00 601.00,349.00
             601.00,349.00 606.15,395.00 606.15,395.00
             606.15,395.00 612.09,444.00 612.09,444.00
             612.09,444.00 613.00,455.00 613.00,455.00
             613.12,479.89 613.54,499.20 608.55,524.00
             598.00,576.45 569.67,624.39 532.00,662.00
             507.74,686.22 471.53,712.67 440.00,726.42
             432.37,729.75 414.83,738.91 407.00,737.06
             399.81,735.37 384.95,728.65 378.00,725.26
             359.10,716.04 340.81,705.58 324.00,692.87
             301.47,675.84 283.46,659.08 265.80,637.00
             239.91,604.63 219.83,565.90 211.80,525.00
             206.54,498.15 206.96,484.68 207.00,458.00
             207.00,458.00 207.91,446.00 207.91,446.00
             207.91,446.00 216.72,374.00 216.72,374.00
             216.72,374.00 220.00,335.00 220.00,335.00
             220.00,335.00 220.00,293.00 220.00,293.00
             220.00,293.00 219.09,283.00 219.09,283.00
             219.09,283.00 214.58,240.00 214.58,240.00
             214.58,240.00 210.17,212.00 210.17,212.00
             209.79,207.49 211.85,195.84 212.80,191.00
             213.25,188.71 213.85,184.50 215.72,182.98
             217.44,181.58 223.63,181.07 226.00,180.73
             228.73,180.34 237.81,178.98 240.00,179.31
             243.75,179.87 253.20,185.65 257.00,187.69
             273.40,196.50 300.32,204.21 319.00,204.00
             348.96,203.66 373.80,186.44 393.17,165.00
             398.74,158.83 404.24,152.86 409.00,146.00 Z
           M 411.00,253.00
           C 406.84,257.82 401.62,277.02 399.58,284.00
             399.58,284.00 382.86,335.00 382.86,335.00
             382.86,335.00 377.00,353.00 377.00,353.00
             376.12,355.62 375.19,359.44 372.73,360.98
             370.76,362.21 367.28,362.00 365.00,362.00
             365.00,362.00 292.00,362.00 292.00,362.00
             285.55,362.00 264.73,361.12 260.00,363.00
             260.00,363.00 321.00,407.42 321.00,407.42
             321.00,407.42 352.00,429.00 352.00,429.00
             352.00,429.00 342.33,459.00 342.33,459.00
             342.33,459.00 324.28,515.00 324.28,515.00
             324.28,515.00 317.00,539.00 317.00,539.00
             317.00,539.00 343.00,520.42 343.00,520.42
             343.00,520.42 384.00,490.85 384.00,490.85
             384.00,490.85 402.00,477.71 402.00,477.71
             402.00,477.71 410.00,473.28 410.00,473.28
             410.00,473.28 418.00,477.58 418.00,477.58
             418.00,477.58 436.00,490.58 436.00,490.58
             436.00,490.58 481.00,523.00 481.00,523.00
             481.00,523.00 503.00,538.00 503.00,538.00
             503.00,538.00 494.33,509.00 494.33,509.00
             494.33,509.00 478.33,460.00 478.33,460.00
             478.33,460.00 471.33,439.00 471.33,439.00
             471.33,439.00 469.48,430.62 469.48,430.62
             469.48,430.62 477.00,423.85 477.00,423.85
             477.00,423.85 494.00,411.37 494.00,411.37
             494.00,411.37 535.00,381.42 535.00,381.42
             535.00,381.42 561.00,362.00 561.00,362.00
             561.00,362.00 446.00,362.00 446.00,362.00
             446.00,362.00 436.33,331.00 436.33,331.00
             436.33,331.00 420.67,283.00 420.67,283.00
             420.67,283.00 411.00,253.00 411.00,253.00 Z
           M 504.00,538.00
           C 504.00,538.00 503.00,538.00 503.00,538.00
             503.00,538.00 504.00,539.00 504.00,539.00
             504.00,539.00 504.00,538.00 504.00,538.00 Z" />
</svg>
