<?xml version="1.0" encoding="UTF-8" standalone="no"?>
<!DOCTYPE svg PUBLIC "-//W3C//DTD SVG 20010904//EN"
              "http://www.w3.org/TR/2001/REC-SVG-20010904/DTD/svg10.dtd">

<svg xmlns="http://www.w3.org/2000/svg"
     width="6.51389in" height="7.70833in"
     viewBox="0 0 469 555">
  <path id="Selection"
        fill="black" stroke="black" stroke-width="1"
        d="M 100.00,35.00
           C 103.70,27.61 118.52,22.46 126.00,18.75
             137.71,12.95 143.47,11.75 155.58,8.29
             155.58,8.29 163.00,5.90 163.00,5.90
             175.44,2.77 188.29,1.78 201.00,0.91
             201.00,0.91 210.00,0.02 210.00,0.02
             210.00,0.02 224.00,1.00 224.00,1.00
             241.76,1.20 258.97,4.81 276.00,9.71
             343.32,29.06 399.39,86.77 418.57,154.00
             431.85,200.52 429.66,248.46 411.99,293.42
             401.98,318.88 389.57,339.56 371.15,359.99
             365.84,365.88 355.69,376.41 349.00,380.00
             350.67,382.64 357.12,390.96 357.55,392.99
             358.62,397.97 349.14,403.78 345.00,404.00
             343.23,409.53 337.69,412.71 333.17,415.99
             331.38,417.29 329.40,419.22 327.00,418.52
             323.64,417.53 317.59,408.30 316.00,405.00
             316.00,405.00 285.00,417.91 285.00,417.91
             281.93,419.01 275.65,422.07 273.00,420.00
             266.48,425.87 251.67,426.84 243.00,428.25
             221.15,431.79 188.57,430.59 167.00,425.50
             167.00,425.50 145.00,419.14 145.00,419.14
             138.15,417.15 125.60,411.70 119.00,408.51
             115.43,406.79 110.18,404.28 108.00,401.00
             101.33,400.35 95.34,394.52 90.00,390.77
             74.24,379.71 63.99,369.76 51.42,355.27
             24.66,324.43 6.58,284.60 1.29,244.00
             -0.47,230.50 -0.12,216.61 0.00,203.00
             0.14,188.66 4.37,165.59 8.93,152.00
             13.80,137.47 19.12,123.37 26.72,110.00
             29.40,105.29 32.35,98.90 37.00,96.00
             37.84,90.00 42.81,85.38 46.38,80.72
             55.28,69.09 70.12,53.99 81.83,45.35
             86.65,41.80 94.13,34.79 100.00,35.00 Z
           M 132.00,17.00
           C 132.00,17.00 131.00,17.00 131.00,17.00
             131.00,17.00 132.00,18.00 132.00,18.00
             132.00,18.00 132.00,17.00 132.00,17.00 Z
           M 309.00,46.00
           C 304.84,45.53 299.82,42.32 296.00,40.37
             296.00,40.37 281.00,34.06 281.00,34.06
             264.77,27.91 239.31,22.08 222.00,22.00
             222.00,22.00 207.00,22.00 207.00,22.00
             189.92,22.03 161.99,27.83 146.00,33.91
             138.29,36.85 127.13,41.73 120.00,45.71
             115.58,48.17 109.74,53.27 105.00,54.00
             105.00,54.00 87.00,69.09 87.00,69.09
             87.00,69.09 62.00,94.00 62.00,94.00
             60.86,98.46 53.31,107.27 50.45,112.00
             42.21,125.63 36.25,137.92 31.08,153.00
             24.00,173.65 20.97,196.24 21.00,218.00
             21.00,218.00 21.91,230.00 21.91,230.00
             24.49,266.87 36.26,296.28 56.74,326.91
             60.32,332.27 66.51,339.03 70.84,344.00
             122.21,402.85 203.74,422.91 277.00,397.34
             294.08,391.38 311.57,382.74 326.00,371.77
             330.96,368.00 337.97,363.41 341.00,358.00
             341.00,358.00 343.00,359.00 343.00,359.00
             343.00,359.00 360.57,339.00 360.57,339.00
             369.53,328.21 379.78,312.87 386.01,300.28
             407.15,257.57 411.41,201.34 396.48,156.00
             389.96,136.19 380.63,118.23 368.78,101.09
             360.01,88.40 342.22,71.09 330.00,61.37
             324.41,56.92 316.71,53.08 312.00,48.00
             312.00,48.00 310.00,49.00 310.00,49.00
             310.00,49.00 309.00,46.00 309.00,46.00 Z
           M 119.00,23.00
           C 119.00,23.00 118.00,23.00 118.00,23.00
             118.00,23.00 119.00,24.00 119.00,24.00
             119.00,24.00 119.00,23.00 119.00,23.00 Z
           M 326.00,33.00
           C 326.00,33.00 325.00,33.00 325.00,33.00
             325.00,33.00 326.00,34.00 326.00,34.00
             326.00,34.00 326.00,33.00 326.00,33.00 Z
           M 358.00,58.00
           C 358.00,58.00 357.00,58.00 357.00,58.00
             357.00,58.00 358.00,59.00 358.00,59.00
             358.00,59.00 358.00,58.00 358.00,58.00 Z
           M 349.00,72.00
           C 349.00,72.00 348.00,72.00 348.00,72.00
             348.00,72.00 349.00,73.00 349.00,73.00
             349.00,73.00 349.00,72.00 349.00,72.00 Z
           M 50.00,79.00
           C 50.00,79.00 49.00,79.00 49.00,79.00
             49.00,79.00 50.00,80.00 50.00,80.00
             50.00,80.00 50.00,79.00 50.00,79.00 Z
           M 384.00,87.00
           C 384.00,87.00 383.00,87.00 383.00,87.00
             383.00,87.00 384.00,88.00 384.00,88.00
             384.00,88.00 384.00,87.00 384.00,87.00 Z
           M 368.00,97.00
           C 368.00,97.00 367.00,97.00 367.00,97.00
             367.00,97.00 368.00,98.00 368.00,98.00
             368.00,98.00 368.00,97.00 368.00,97.00 Z
           M 265.00,322.00
           C 261.53,327.17 247.70,330.33 241.58,331.85
             214.67,338.49 185.66,335.30 161.43,321.62
             161.43,321.62 154.00,317.98 154.00,317.98
             147.74,314.41 134.98,304.26 130.17,299.00
             124.12,292.38 114.10,278.10 110.32,270.00
             110.32,270.00 106.58,260.00 106.58,260.00
             89.93,215.86 98.46,169.23 132.72,135.88
             132.72,135.88 139.05,129.58 139.05,129.58
             142.90,126.36 145.74,124.75 149.83,122.13
             149.83,122.13 159.00,115.90 159.00,115.90
             180.56,104.11 207.86,99.80 232.00,103.59
             232.00,103.59 250.27,108.20 250.27,108.20
             254.12,109.18 258.40,109.80 261.00,113.00
             265.49,113.14 268.14,115.18 272.00,117.30
             280.14,121.79 287.18,127.54 294.13,133.59
             337.09,170.91 342.72,233.26 313.08,280.42
             305.51,292.48 294.89,304.85 283.00,312.83
             278.70,315.72 274.30,319.75 269.00,320.00
             269.00,320.00 265.00,322.00 265.00,322.00 Z
           M 256.00,143.00
           C 253.25,134.35 241.01,119.43 233.83,114.06
             231.31,112.17 222.62,108.58 220.02,111.64
             218.77,113.11 219.00,117.10 219.00,119.00
             219.00,119.00 219.00,156.00 219.00,156.00
             219.00,156.00 236.00,156.00 236.00,156.00
             236.00,156.00 251.00,155.00 251.00,155.00
             251.00,155.00 264.00,154.00 264.00,154.00
             264.00,154.00 264.00,151.00 264.00,151.00
             264.00,151.00 260.00,150.00 260.00,150.00
             260.00,150.00 261.00,147.00 261.00,147.00
             261.00,147.00 257.00,145.00 257.00,145.00
             257.00,145.00 254.00,148.00 254.00,148.00
             254.00,148.00 256.00,143.00 256.00,143.00 Z
           M 377.00,110.00
           C 377.00,110.00 376.00,110.00 376.00,110.00
             376.00,110.00 377.00,111.00 377.00,111.00
             377.00,111.00 377.00,110.00 377.00,110.00 Z
           M 235.00,112.00
           C 235.00,112.00 234.00,112.00 234.00,112.00
             234.00,112.00 235.00,113.00 235.00,113.00
             235.00,113.00 235.00,112.00 235.00,112.00 Z
           M 203.00,144.00
           C 194.65,137.41 197.55,133.87 196.90,125.00
             196.73,122.66 195.35,115.37 193.42,114.06
             191.34,112.66 188.11,114.26 186.00,114.91
             186.00,114.91 178.00,116.71 178.00,116.71
             174.37,117.75 172.87,119.69 169.00,120.00
             163.55,125.04 161.59,121.28 159.00,128.00
             159.00,128.00 164.00,129.00 164.00,129.00
             162.39,130.34 160.86,131.70 159.00,132.70
             156.50,134.04 143.04,136.77 150.31,145.83
             150.31,145.83 157.00,153.00 157.00,153.00
             157.00,153.00 159.00,153.00 159.00,153.00
             162.59,144.74 163.78,137.12 171.00,131.00
             171.00,131.00 170.00,129.00 170.00,129.00
             170.00,129.00 173.00,129.00 173.00,129.00
             173.70,124.47 178.45,120.56 182.00,118.00
             182.00,118.00 187.00,131.00 187.00,131.00
             187.00,131.00 183.00,130.00 183.00,130.00
             183.00,130.00 186.00,135.00 186.00,135.00
             186.00,135.00 182.00,137.00 182.00,137.00
             182.00,137.00 181.00,134.00 181.00,134.00
             181.00,134.00 179.00,136.00 179.00,136.00
             179.00,136.00 178.00,131.00 178.00,131.00
             170.80,135.72 171.11,145.15 181.00,143.00
             181.56,147.82 184.53,153.45 189.28,155.43
             191.70,156.43 209.10,156.00 213.00,156.00
             213.00,156.00 214.00,133.00 214.00,133.00
             207.27,134.83 205.39,137.78 203.00,144.00 Z
           M 263.00,113.00
           C 263.00,113.00 262.00,113.00 262.00,113.00
             262.00,113.00 263.00,114.00 263.00,114.00
             263.00,114.00 263.00,113.00 263.00,113.00 Z
           M 260.00,117.00
           C 260.00,117.00 242.00,115.00 242.00,115.00
             249.69,120.61 254.71,129.23 259.97,137.00
             261.52,139.28 264.99,145.86 267.15,146.83
             271.44,148.76 271.33,142.33 271.00,140.00
             271.00,140.00 273.00,137.00 273.00,137.00
             277.54,139.66 277.83,139.76 283.00,139.00
             283.00,139.00 281.00,131.00 281.00,131.00
             281.00,131.00 273.00,128.00 273.00,128.00
             273.00,128.00 275.00,133.00 275.00,133.00
             275.00,133.00 268.00,135.00 268.00,135.00
             268.00,135.00 266.95,124.25 266.95,124.25
             266.95,124.25 260.00,117.00 260.00,117.00 Z
           M 174.00,117.00
           C 174.00,117.00 173.00,117.00 173.00,117.00
             173.00,117.00 174.00,118.00 174.00,118.00
             174.00,118.00 174.00,117.00 174.00,117.00 Z
           M 160.00,119.00
           C 160.00,119.00 159.00,119.00 159.00,119.00
             159.00,119.00 160.00,120.00 160.00,120.00
             160.00,120.00 160.00,119.00 160.00,119.00 Z
           M 243.00,120.00
           C 243.00,120.00 242.00,120.00 242.00,120.00
             242.00,120.00 243.00,121.00 243.00,121.00
             243.00,121.00 243.00,120.00 243.00,120.00 Z
           M 385.00,122.00
           C 385.00,122.00 384.00,122.00 384.00,122.00
             384.00,122.00 385.00,123.00 385.00,123.00
             385.00,123.00 385.00,122.00 385.00,122.00 Z
           M 184.00,123.00
           C 184.00,123.00 183.00,123.00 183.00,123.00
             183.00,123.00 184.00,124.00 184.00,124.00
             184.00,124.00 184.00,123.00 184.00,123.00 Z
           M 183.00,127.00
           C 183.00,127.00 178.00,131.00 178.00,131.00
             178.00,131.00 183.00,130.00 183.00,130.00
             183.00,130.00 183.00,127.00 183.00,127.00 Z
           M 283.00,132.00
           C 283.00,132.00 282.00,132.00 282.00,132.00
             282.00,132.00 283.00,133.00 283.00,133.00
             283.00,133.00 283.00,132.00 283.00,132.00 Z
           M 257.00,143.00
           C 257.00,143.00 256.00,143.00 256.00,143.00
             256.00,143.00 257.00,144.00 257.00,144.00
             257.00,144.00 257.00,143.00 257.00,143.00 Z
           M 125.00,147.00
           C 125.00,147.00 124.00,147.00 124.00,147.00
             124.00,147.00 125.00,148.00 125.00,148.00
             125.00,148.00 125.00,147.00 125.00,147.00 Z
           M 265.00,150.00
           C 265.00,150.00 264.00,150.00 264.00,150.00
             264.00,150.00 265.00,151.00 265.00,151.00
             265.00,151.00 265.00,150.00 265.00,150.00 Z
           M 218.00,152.00
           C 218.00,152.00 217.00,152.00 217.00,152.00
             217.00,152.00 218.00,153.00 218.00,153.00
             218.00,153.00 218.00,152.00 218.00,152.00 Z
           M 286.00,154.00
           C 286.00,154.00 288.00,160.00 288.00,160.00
             288.00,160.00 279.00,156.00 279.00,156.00
             279.00,156.00 273.91,161.21 273.91,161.21
             271.92,164.10 270.53,169.78 266.68,170.89
             265.02,171.37 261.77,170.36 260.00,170.00
             260.47,167.65 261.37,163.82 259.21,161.94
             256.99,160.11 250.74,161.57 248.00,161.94
             248.00,161.94 240.00,161.94 240.00,161.94
             240.00,161.94 219.00,163.00 219.00,163.00
             219.00,163.00 219.00,209.00 219.00,209.00
             219.04,216.08 219.69,216.90 227.00,217.00
             227.00,217.00 253.32,217.00 253.32,217.00
             253.32,217.00 253.32,208.00 253.32,208.00
             253.55,204.44 252.17,202.13 253.32,198.00
             254.48,193.13 257.87,191.02 259.42,187.00
             259.42,187.00 260.73,182.09 260.73,182.09
             263.16,176.25 267.91,173.48 274.00,174.00
             278.35,169.93 281.32,171.09 287.00,170.00
             287.05,171.49 286.95,173.27 287.57,174.66
             289.33,178.57 298.04,181.28 302.00,182.00
             302.00,182.00 303.00,179.00 303.00,179.00
             303.00,179.00 313.59,184.30 313.59,184.30
             313.59,184.30 324.00,201.00 324.00,201.00
             324.00,201.00 319.03,184.42 319.03,184.42
             319.03,184.42 313.73,173.31 313.73,173.31
             313.73,173.31 305.34,169.98 305.34,169.98
             305.34,169.98 301.00,163.00 301.00,163.00
             301.00,163.00 309.00,164.00 309.00,164.00
             308.04,157.17 305.51,155.15 299.00,158.00
             299.00,158.00 301.00,162.00 301.00,162.00
             295.21,161.74 290.86,156.82 286.00,154.00 Z
           M 9.00,161.00
           C 9.00,161.00 8.00,161.00 8.00,161.00
             8.00,161.00 9.00,162.00 9.00,162.00
             9.00,162.00 9.00,161.00 9.00,161.00 Z
           M 213.00,163.00
           C 213.00,163.00 204.00,163.00 204.00,163.00
             193.29,162.95 185.76,160.14 174.00,163.00
             174.97,167.98 175.38,170.30 169.00,170.00
             164.73,175.82 164.04,174.65 160.61,178.37
             160.61,178.37 155.67,184.79 155.67,184.79
             150.43,190.17 146.68,187.87 148.00,197.00
             148.00,197.00 145.00,196.00 145.00,196.00
             145.00,196.00 143.00,200.00 143.00,200.00
             143.00,200.00 143.00,216.00 143.00,216.00
             143.00,216.00 157.00,217.00 157.00,217.00
             157.00,217.00 195.00,217.00 195.00,217.00
             198.39,217.00 210.00,217.90 211.98,215.40
             213.23,213.81 213.00,209.99 213.00,208.00
             213.00,208.00 213.00,163.00 213.00,163.00 Z
           M 291.00,162.00
           C 291.00,162.00 296.00,166.00 296.00,166.00
             296.00,166.00 291.00,162.00 291.00,162.00 Z
           M 270.00,165.00
           C 270.00,165.00 269.00,165.00 269.00,165.00
             269.00,165.00 270.00,166.00 270.00,166.00
             270.00,166.00 270.00,165.00 270.00,165.00 Z
           M 313.00,168.00
           C 313.00,168.00 312.00,168.00 312.00,168.00
             312.00,168.00 313.00,169.00 313.00,169.00
             313.00,169.00 313.00,168.00 313.00,168.00 Z
           M 309.00,169.00
           C 309.00,169.00 308.00,169.00 308.00,169.00
             308.00,169.00 309.00,170.00 309.00,170.00
             309.00,170.00 309.00,169.00 309.00,169.00 Z
           M 269.00,175.00
           C 269.00,175.00 268.00,175.00 268.00,175.00
             268.00,175.00 269.00,176.00 269.00,176.00
             269.00,176.00 269.00,175.00 269.00,175.00 Z
           M 422.00,176.00
           C 422.00,176.00 421.00,176.00 421.00,176.00
             421.00,176.00 422.00,177.00 422.00,177.00
             422.00,177.00 422.00,176.00 422.00,176.00 Z
           M 159.00,178.00
           C 159.00,178.00 158.00,178.00 158.00,178.00
             158.00,178.00 159.00,179.00 159.00,179.00
             159.00,179.00 159.00,178.00 159.00,178.00 Z
           M 301.00,183.00
           C 301.00,183.00 300.00,183.00 300.00,183.00
             300.00,183.00 301.00,184.00 301.00,184.00
             301.00,184.00 301.00,183.00 301.00,183.00 Z
           M 112.00,187.00
           C 112.00,187.00 110.00,187.00 110.00,187.00
             110.00,187.00 105.00,216.00 105.00,216.00
             105.00,216.00 129.00,216.00 129.00,216.00
             129.00,216.00 129.00,213.00 129.00,213.00
             114.49,212.19 114.89,198.09 112.00,187.00 Z
           M 314.00,187.00
           C 314.00,187.00 313.00,187.00 313.00,187.00
             313.00,187.00 314.00,188.00 314.00,188.00
             314.00,188.00 314.00,187.00 314.00,187.00 Z
           M 140.00,192.00
           C 136.24,192.00 131.30,191.52 128.11,193.74
             122.04,197.96 121.86,211.76 129.96,209.34
             132.26,208.66 133.57,206.74 135.00,205.00
             135.00,205.00 133.00,214.00 133.00,214.00
             133.00,214.00 137.00,216.00 137.00,216.00
             137.00,216.00 140.00,192.00 140.00,192.00 Z
           M 147.00,198.00
           C 147.00,198.00 148.00,198.00 148.00,198.00
             148.00,198.00 147.00,199.00 147.00,199.00
             147.00,199.00 147.00,198.00 147.00,198.00 Z
           M 143.00,203.00
           C 143.00,203.00 142.00,203.00 142.00,203.00
             142.00,203.00 143.00,204.00 143.00,204.00
             143.00,204.00 143.00,203.00 143.00,203.00 Z
           M 122.00,204.00
           C 122.00,204.00 121.00,204.00 121.00,204.00
             121.00,204.00 122.00,205.00 122.00,205.00
             122.00,205.00 122.00,204.00 122.00,204.00 Z
           M 121.00,209.00
           C 121.00,209.00 120.00,209.00 120.00,209.00
             120.00,209.00 121.00,210.00 121.00,210.00
             121.00,210.00 121.00,209.00 121.00,209.00 Z
           M 213.00,220.00
           C 213.00,220.00 212.00,220.00 212.00,220.00
             212.00,220.00 213.00,221.00 213.00,221.00
             213.00,221.00 213.00,220.00 213.00,220.00 Z
           M 137.00,221.00
           C 137.00,221.00 136.00,221.00 136.00,221.00
             136.00,221.00 137.00,222.00 137.00,222.00
             137.00,222.00 137.00,221.00 137.00,221.00 Z
           M 137.00,223.00
           C 137.00,223.00 106.00,223.00 106.00,223.00
             106.00,223.00 108.43,244.00 108.43,244.00
             108.43,244.00 113.00,261.00 113.00,261.00
             117.74,265.75 118.80,272.03 121.63,274.15
             124.24,275.83 130.00,274.64 133.00,274.15
             138.33,273.65 142.77,274.08 148.00,275.00
             148.00,275.00 141.88,255.00 141.88,255.00
             141.88,255.00 137.00,223.00 137.00,223.00 Z
           M 213.00,223.00
           C 213.00,223.00 144.00,223.00 144.00,223.00
             144.00,223.00 145.00,240.00 145.00,240.00
             145.00,240.00 149.00,236.00 149.00,236.00
             149.00,236.00 147.00,234.00 147.00,234.00
             150.63,230.67 152.19,226.60 155.00,230.00
             155.00,230.00 161.00,227.00 161.00,227.00
             171.15,235.98 184.90,233.47 185.00,244.00
             185.00,244.00 203.00,251.71 203.00,251.71
             205.56,252.71 208.47,254.09 209.16,257.03
             210.02,260.73 205.83,264.13 205.00,274.00
             205.00,274.00 213.00,274.00 213.00,274.00
             213.00,274.00 213.00,223.00 213.00,223.00 Z
           M 268.00,232.00
           C 268.00,232.00 255.83,223.58 255.83,223.58
             255.83,223.58 244.00,223.00 244.00,223.00
             244.00,223.00 219.00,223.00 219.00,223.00
             219.00,223.00 219.00,267.00 219.00,267.00
             219.14,274.49 221.26,273.99 228.00,274.00
             228.00,274.00 260.00,274.00 260.00,274.00
             262.13,274.00 265.72,274.23 267.49,272.98
             269.42,271.61 270.78,266.35 271.48,264.01
             273.29,258.02 276.21,241.11 275.98,235.02
             275.71,227.77 270.61,228.55 268.00,232.00 Z
           M 261.00,224.00
           C 261.00,224.00 260.00,224.00 260.00,224.00
             260.00,224.00 261.00,225.00 261.00,225.00
             261.00,225.00 261.00,224.00 261.00,224.00 Z
           M 288.00,227.00
           C 285.14,227.63 283.21,227.90 282.31,231.11
             282.31,231.11 280.92,247.00 280.92,247.00
             280.92,247.00 275.00,274.00 275.00,274.00
             275.00,274.00 296.00,275.00 296.00,275.00
             293.54,261.26 298.39,264.62 298.89,255.00
             299.27,247.86 295.27,245.63 294.49,241.00
             294.21,238.51 295.35,235.52 294.49,233.30
             293.56,231.37 291.02,230.61 288.00,227.00 Z
           M 141.00,228.00
           C 141.00,228.00 140.00,228.00 140.00,228.00
             140.00,228.00 141.00,229.00 141.00,229.00
             141.00,229.00 141.00,228.00 141.00,228.00 Z
           M 295.00,228.00
           C 295.00,228.00 294.00,228.00 294.00,228.00
             294.00,228.00 295.00,229.00 295.00,229.00
             295.00,229.00 295.00,228.00 295.00,228.00 Z
           M 187.00,246.00
           C 187.00,246.00 186.00,246.00 186.00,246.00
             186.00,246.00 187.00,247.00 187.00,247.00
             187.00,247.00 187.00,246.00 187.00,246.00 Z
           M 277.00,255.00
           C 277.00,255.00 276.00,255.00 276.00,255.00
             276.00,255.00 277.00,256.00 277.00,256.00
             277.00,256.00 277.00,255.00 277.00,255.00 Z
           M 151.00,266.00
           C 150.19,272.17 155.36,272.74 157.63,277.18
             159.94,281.70 157.70,284.67 163.00,288.00
             163.00,288.00 159.84,275.01 159.84,275.01
             159.84,275.01 151.00,266.00 151.00,266.00 Z
           M 115.00,267.00
           C 115.00,267.00 114.00,267.00 114.00,267.00
             114.00,267.00 115.00,268.00 115.00,268.00
             115.00,268.00 115.00,267.00 115.00,267.00 Z
           M 314.00,272.00
           C 314.00,272.00 313.00,272.00 313.00,272.00
             313.00,272.00 314.00,273.00 314.00,273.00
             314.00,273.00 314.00,272.00 314.00,272.00 Z
           M 154.00,274.00
           C 154.00,274.00 153.00,274.00 153.00,274.00
             153.00,274.00 154.00,275.00 154.00,275.00
             154.00,275.00 154.00,274.00 154.00,274.00 Z
           M 206.00,275.00
           C 206.00,275.00 205.00,275.00 205.00,275.00
             205.00,275.00 206.00,276.00 206.00,276.00
             206.00,276.00 206.00,275.00 206.00,275.00 Z
           M 219.00,275.00
           C 219.00,275.00 218.00,275.00 218.00,275.00
             218.00,275.00 219.00,276.00 219.00,276.00
             219.00,276.00 219.00,275.00 219.00,275.00 Z
           M 121.00,280.00
           C 121.00,280.00 120.00,280.00 120.00,280.00
             120.00,280.00 121.00,281.00 121.00,281.00
             121.00,281.00 121.00,280.00 121.00,280.00 Z
           M 199.00,280.00
           C 199.00,280.00 198.00,280.00 198.00,280.00
             198.00,280.00 199.00,281.00 199.00,281.00
             199.00,281.00 199.00,280.00 199.00,280.00 Z
           M 265.00,281.00
           C 265.00,281.00 233.00,280.00 233.00,280.00
             233.00,280.00 220.74,280.99 220.74,280.99
             220.74,280.99 219.00,288.00 219.00,288.00
             219.00,288.00 219.00,327.00 219.00,327.00
             223.93,327.00 232.53,326.95 236.83,324.55
             242.96,321.13 248.49,312.88 252.21,307.09
             257.78,298.41 262.63,291.34 265.00,281.00 Z
           M 270.00,280.00
           C 270.00,280.00 269.00,280.00 269.00,280.00
             269.00,280.00 270.00,281.00 270.00,281.00
             270.00,281.00 270.00,280.00 270.00,280.00 Z
           M 155.00,285.00
           C 153.71,283.85 152.38,282.39 150.76,281.86
             146.87,280.11 131.21,280.80 127.00,281.86
             131.71,292.44 145.44,303.85 155.00,310.01
             159.82,313.12 163.28,315.84 169.00,317.00
             169.00,317.00 160.48,297.42 160.48,297.42
             160.48,297.42 155.00,285.00 155.00,285.00 Z
           M 213.00,281.00
           C 207.06,281.00 198.91,281.20 194.72,286.30
             192.59,288.88 192.70,292.80 188.61,298.00
             183.99,303.88 178.66,305.50 181.67,310.58
             184.48,315.33 193.60,324.51 199.00,326.29
             201.49,326.98 210.21,328.53 211.98,326.29
             213.23,324.86 213.00,320.94 213.00,319.00
             213.00,319.00 213.00,281.00 213.00,281.00 Z
           M 297.00,282.00
           C 297.00,282.00 279.00,281.00 279.00,281.00
             279.00,281.00 271.99,282.57 271.99,282.57
             271.99,282.57 265.34,296.00 265.34,296.00
             265.34,296.00 257.77,309.00 257.77,309.00
             257.77,309.00 250.00,321.00 250.00,321.00
             260.14,319.56 272.54,311.84 280.61,305.56
             284.14,302.82 291.15,295.96 295.00,295.00
             297.75,287.97 297.98,289.68 297.00,282.00 Z
           M 165.00,283.00
           C 165.00,283.00 164.00,283.00 164.00,283.00
             164.00,283.00 165.00,284.00 165.00,284.00
             165.00,284.00 165.00,283.00 165.00,283.00 Z
           M 121.00,284.00
           C 121.00,284.00 120.00,284.00 120.00,284.00
             120.00,284.00 121.00,285.00 121.00,285.00
             121.00,285.00 121.00,284.00 121.00,284.00 Z
           M 126.00,287.00
           C 126.00,287.00 125.00,287.00 125.00,287.00
             125.00,287.00 126.00,288.00 126.00,288.00
             126.00,288.00 126.00,287.00 126.00,287.00 Z
           M 266.00,288.00
           C 266.00,288.00 265.00,288.00 265.00,288.00
             265.00,288.00 266.00,289.00 266.00,289.00
             266.00,289.00 266.00,288.00 266.00,288.00 Z
           M 131.00,289.00
           C 131.00,289.00 130.00,289.00 130.00,289.00
             130.00,289.00 131.00,290.00 131.00,290.00
             131.00,290.00 131.00,289.00 131.00,289.00 Z
           M 128.00,293.00
           C 128.00,293.00 127.00,293.00 127.00,293.00
             127.00,293.00 128.00,294.00 128.00,294.00
             128.00,294.00 128.00,293.00 128.00,293.00 Z
           M 292.00,299.00
           C 292.00,299.00 291.00,299.00 291.00,299.00
             291.00,299.00 292.00,300.00 292.00,300.00
             292.00,300.00 292.00,299.00 292.00,299.00 Z
           M 262.00,300.00
           C 262.00,300.00 261.00,300.00 261.00,300.00
             261.00,300.00 262.00,301.00 262.00,301.00
             262.00,301.00 262.00,300.00 262.00,300.00 Z
           M 408.00,301.00
           C 408.00,301.00 407.00,301.00 407.00,301.00
             407.00,301.00 408.00,302.00 408.00,302.00
             408.00,302.00 408.00,301.00 408.00,301.00 Z
           M 258.00,304.00
           C 258.00,304.00 257.00,304.00 257.00,304.00
             257.00,304.00 258.00,305.00 258.00,305.00
             258.00,305.00 258.00,304.00 258.00,304.00 Z
           M 44.00,307.00
           C 44.00,307.00 43.00,307.00 43.00,307.00
             43.00,307.00 44.00,308.00 44.00,308.00
             44.00,308.00 44.00,307.00 44.00,307.00 Z
           M 148.00,307.00
           C 148.00,307.00 147.00,307.00 147.00,307.00
             147.00,307.00 148.00,308.00 148.00,308.00
             148.00,308.00 148.00,307.00 148.00,307.00 Z
           M 384.00,307.00
           C 384.00,307.00 383.00,307.00 383.00,307.00
             383.00,307.00 384.00,308.00 384.00,308.00
             384.00,308.00 384.00,307.00 384.00,307.00 Z
           M 156.00,311.00
           C 156.00,311.00 155.00,311.00 155.00,311.00
             155.00,311.00 156.00,312.00 156.00,312.00
             156.00,312.00 156.00,311.00 156.00,311.00 Z
           M 251.00,311.00
           C 251.00,311.00 250.00,311.00 250.00,311.00
             250.00,311.00 251.00,312.00 251.00,312.00
             251.00,312.00 251.00,311.00 251.00,311.00 Z
           M 182.00,312.00
           C 182.00,312.00 181.00,312.00 181.00,312.00
             181.00,312.00 182.00,313.00 182.00,313.00
             182.00,313.00 182.00,312.00 182.00,312.00 Z
           M 47.00,315.00
           C 47.00,315.00 46.00,315.00 46.00,315.00
             46.00,315.00 47.00,316.00 47.00,316.00
             47.00,316.00 47.00,315.00 47.00,315.00 Z
           M 183.00,323.00
           C 181.25,318.56 180.13,316.05 175.00,316.00
             177.17,320.97 178.09,320.96 183.00,323.00 Z
           M 256.00,324.00
           C 256.00,324.00 255.00,324.00 255.00,324.00
             255.00,324.00 256.00,325.00 256.00,325.00
             256.00,325.00 256.00,324.00 256.00,324.00 Z
           M 195.00,327.00
           C 195.00,327.00 194.00,327.00 194.00,327.00
             194.00,327.00 195.00,328.00 195.00,328.00
             195.00,328.00 195.00,327.00 195.00,327.00 Z
           M 41.00,339.00
           C 41.00,339.00 40.00,339.00 40.00,339.00
             40.00,339.00 41.00,340.00 41.00,340.00
             41.00,340.00 41.00,339.00 41.00,339.00 Z
           M 71.00,346.00
           C 71.00,346.00 70.00,346.00 70.00,346.00
             70.00,346.00 71.00,347.00 71.00,347.00
             71.00,347.00 71.00,346.00 71.00,346.00 Z
           M 80.00,354.00
           C 80.00,354.00 79.00,354.00 79.00,354.00
             79.00,354.00 80.00,355.00 80.00,355.00
             80.00,355.00 80.00,354.00 80.00,354.00 Z
           M 83.00,358.00
           C 83.00,358.00 82.00,358.00 82.00,358.00
             82.00,358.00 83.00,359.00 83.00,359.00
             83.00,359.00 83.00,358.00 83.00,358.00 Z
           M 367.00,361.00
           C 367.00,361.00 366.00,361.00 366.00,361.00
             366.00,361.00 367.00,362.00 367.00,362.00
             367.00,362.00 367.00,361.00 367.00,361.00 Z
           M 86.00,363.00
           C 86.00,363.00 85.00,363.00 85.00,363.00
             85.00,363.00 86.00,364.00 86.00,364.00
             86.00,364.00 86.00,363.00 86.00,363.00 Z
           M 68.00,370.00
           C 68.00,370.00 67.00,370.00 67.00,370.00
             67.00,370.00 68.00,371.00 68.00,371.00
             68.00,371.00 68.00,370.00 68.00,370.00 Z
           M 110.00,378.00
           C 110.00,378.00 109.00,378.00 109.00,378.00
             109.00,378.00 110.00,379.00 110.00,379.00
             110.00,379.00 110.00,378.00 110.00,378.00 Z
           M 363.00,408.00
           C 364.84,404.42 373.48,395.01 377.91,396.32
             380.05,396.95 382.33,400.23 383.63,401.96
             383.63,401.96 392.75,413.00 392.75,413.00
             392.75,413.00 425.34,452.72 425.34,452.72
             429.30,457.68 435.86,462.63 437.00,469.00
             442.38,471.67 446.16,477.52 450.01,482.09
             459.56,493.41 467.50,498.53 468.68,514.00
             469.21,520.95 465.63,537.22 458.00,539.00
             456.44,544.30 454.45,545.48 450.00,548.49
             440.89,554.64 430.53,556.34 420.00,552.95
             411.71,550.28 408.19,544.75 402.86,538.42
             402.86,538.42 380.30,511.25 380.30,511.25
             376.96,507.29 368.88,498.68 368.00,494.00
             362.41,491.06 356.38,482.30 352.31,477.28
             342.63,465.37 329.71,452.60 323.00,439.00
             326.90,435.31 335.90,426.91 341.00,426.00
             343.51,420.86 357.58,409.01 363.00,408.00 Z
           M 377.00,397.00
           C 377.00,397.00 376.00,397.00 376.00,397.00
             376.00,397.00 377.00,398.00 377.00,398.00
             377.00,398.00 377.00,397.00 377.00,397.00 Z
           M 176.00,407.00
           C 176.00,407.00 175.00,407.00 175.00,407.00
             175.00,407.00 176.00,408.00 176.00,408.00
             176.00,408.00 176.00,407.00 176.00,407.00 Z
           M 240.00,407.00
           C 240.00,407.00 239.00,407.00 239.00,407.00
             239.00,407.00 240.00,408.00 240.00,408.00
             240.00,408.00 240.00,407.00 240.00,407.00 Z
           M 345.00,423.00
           C 345.00,423.00 344.00,423.00 344.00,423.00
             344.00,423.00 345.00,424.00 345.00,424.00
             345.00,424.00 345.00,423.00 345.00,423.00 Z
           M 412.00,437.00
           C 412.00,437.00 411.00,437.00 411.00,437.00
             411.00,437.00 412.00,438.00 412.00,438.00
             412.00,438.00 412.00,437.00 412.00,437.00 Z
           M 336.00,453.00
           C 336.00,453.00 335.00,453.00 335.00,453.00
             335.00,453.00 336.00,454.00 336.00,454.00
             336.00,454.00 336.00,453.00 336.00,453.00 Z
           M 352.00,472.00
           C 352.00,472.00 351.00,472.00 351.00,472.00
             351.00,472.00 352.00,473.00 352.00,473.00
             352.00,473.00 352.00,472.00 352.00,472.00 Z
           M 412.00,545.00
           C 412.00,545.00 411.00,545.00 411.00,545.00
             411.00,545.00 412.00,546.00 412.00,546.00
             412.00,546.00 412.00,545.00 412.00,545.00 Z
           M 417.00,550.00
           C 417.00,550.00 416.00,550.00 416.00,550.00
             416.00,550.00 417.00,551.00 417.00,551.00
             417.00,551.00 417.00,550.00 417.00,550.00 Z" />
</svg>
