<?xml version="1.0" encoding="UTF-8" standalone="no"?>
<!DOCTYPE svg PUBLIC "-//W3C//DTD SVG 20010904//EN"
              "http://www.w3.org/TR/2001/REC-SVG-20010904/DTD/svg10.dtd">

<svg xmlns="http://www.w3.org/2000/svg"
     width="12.1111in" height="12.0972in"
     viewBox="0 0 872 871">
  <path id="Selection"
        fill="black" stroke="black" stroke-width="1"
        d="M 411.00,0.21
           C 411.00,0.21 457.00,0.21 457.00,0.21
             457.00,0.21 467.00,0.91 467.00,0.91
             502.62,3.35 536.95,9.73 571.00,20.66
             625.22,38.05 673.97,65.37 718.00,101.46
             731.25,112.32 743.44,124.50 755.09,137.00
             806.86,192.60 840.63,254.51 859.52,328.00
             866.27,354.27 869.25,380.08 871.09,407.00
             871.09,407.00 872.00,419.00 872.00,419.00
             872.00,419.00 872.00,451.00 872.00,451.00
             872.00,451.00 867.72,501.00 867.72,501.00
             859.74,560.18 835.68,624.14 802.92,674.00
             762.63,735.33 709.51,783.80 645.00,818.69
             598.92,843.61 547.04,861.07 495.00,867.72
             469.38,870.99 443.81,871.30 418.00,871.00
             418.00,871.00 395.00,869.17 395.00,869.17
             358.56,865.64 333.90,860.54 299.00,849.34
             259.33,836.62 216.70,815.62 183.00,791.15
             134.34,755.82 97.39,719.05 65.05,668.00
             32.02,615.85 10.91,554.16 3.28,493.00
             0.01,466.74 -0.31,440.45 0.00,414.00
             0.00,414.00 1.00,404.00 1.00,404.00
             1.00,404.00 1.00,396.00 1.00,396.00
             1.00,396.00 6.42,356.00 6.42,356.00
             13.75,315.39 27.20,276.05 45.26,239.00
             45.26,239.00 61.60,210.00 61.60,210.00
             107.85,132.92 177.86,72.17 260.00,35.86
             275.00,29.23 297.14,21.70 313.00,16.88
             336.50,9.75 362.63,5.19 387.00,2.28
             387.00,2.28 411.00,0.21 411.00,0.21 Z
           M 426.00,23.14
           C 426.00,23.14 397.00,25.17 397.00,25.17
             373.69,27.40 347.51,32.01 325.00,38.43
             225.90,66.67 143.77,125.95 87.95,213.00
             78.51,227.73 69.62,243.09 62.31,259.00
             49.83,286.18 38.35,318.66 32.45,348.00
             13.74,440.99 25.27,538.92 67.81,624.00
             91.61,671.60 132.83,721.14 174.00,754.54
             208.97,782.91 248.85,805.34 291.00,821.05
             323.34,833.10 362.57,842.57 397.00,845.09
             397.00,845.09 407.00,846.00 407.00,846.00
             407.00,846.00 426.00,847.00 426.00,847.00
             426.00,847.00 449.00,847.00 449.00,847.00
             449.00,847.00 461.00,846.09 461.00,846.09
             506.09,843.00 547.83,834.50 590.00,817.80
             680.52,781.94 758.04,712.63 802.74,626.00
             819.61,593.32 830.56,560.82 838.42,525.00
             843.17,503.41 845.58,481.99 847.09,460.00
             847.09,460.00 848.00,448.00 848.00,448.00
             848.00,448.00 848.00,423.00 848.00,423.00
             848.00,423.00 846.96,411.00 846.96,411.00
             846.96,411.00 846.96,401.00 846.96,401.00
             843.97,370.93 838.96,340.90 829.98,312.00
             788.87,179.76 687.94,81.56 556.00,40.98
             528.35,32.47 499.84,27.02 471.00,24.91
             471.00,24.91 461.00,24.00 461.00,24.00
             461.00,24.00 442.00,23.14 442.00,23.14
             442.00,23.14 426.00,23.14 426.00,23.14 Z
           M 663.00,242.00
           C 666.75,237.05 683.66,229.02 689.97,226.62
             689.97,226.62 702.28,221.27 702.28,221.27
             702.28,221.27 726.09,215.06 726.09,215.06
             726.09,215.06 737.00,215.06 737.00,215.06
             745.80,215.01 741.95,215.48 748.09,216.75
             753.95,217.96 753.99,216.94 760.13,219.86
             768.04,223.62 783.64,230.63 785.00,240.00
             789.88,242.50 790.99,246.40 793.31,251.13
             798.67,262.03 797.85,260.57 800.22,272.00
             801.47,278.03 802.84,278.49 801.00,285.00
             803.46,287.20 802.98,288.82 803.00,292.00
             803.00,292.00 803.00,322.00 803.00,322.00
             802.98,325.18 803.46,326.80 801.00,329.00
             803.43,337.55 800.93,338.45 800.11,344.04
             800.11,344.04 798.77,355.83 798.77,355.83
             798.77,355.83 797.22,361.09 797.22,361.09
             797.22,361.09 795.85,368.83 795.85,368.83
             795.85,368.83 791.43,383.17 791.43,383.17
             790.11,387.48 788.29,397.29 785.00,400.00
             785.85,404.70 783.07,410.81 781.18,415.15
             781.18,415.15 776.27,427.58 776.27,427.58
             776.27,427.58 771.73,437.28 771.73,437.28
             771.73,437.28 761.42,457.09 761.42,457.09
             746.64,484.01 731.62,506.78 708.54,527.62
             708.54,527.62 681.00,547.00 681.00,547.00
             681.00,547.00 678.00,546.00 678.00,546.00
             674.88,550.22 665.17,553.36 660.02,554.83
             655.47,556.13 654.18,557.30 649.00,558.05
             649.00,558.05 642.09,558.05 642.09,558.05
             637.11,559.16 640.36,559.99 631.00,560.00
             619.51,560.01 622.07,558.14 614.00,558.00
             614.00,558.00 583.00,562.00 583.00,562.00
             580.88,564.46 579.14,564.27 576.28,565.60
             571.50,567.83 567.99,570.11 563.71,573.15
             552.91,580.82 544.66,589.94 536.44,600.21
             536.44,600.21 523.79,619.39 523.79,619.39
             523.79,619.39 517.75,627.28 517.75,627.28
             517.75,627.28 501.30,652.28 501.30,652.28
             498.01,657.29 489.57,671.26 485.00,674.00
             485.00,674.00 486.00,677.00 486.00,677.00
             486.00,677.00 472.45,695.25 472.45,695.25
             472.45,695.25 469.20,702.87 469.20,702.87
             469.20,702.87 476.45,714.44 476.45,714.44
             476.45,714.44 494.24,737.88 494.24,737.88
             494.24,737.88 511.23,760.69 511.23,760.69
             511.23,760.69 529.03,783.29 529.03,783.29
             529.03,783.29 555.00,817.00 555.00,817.00
             555.00,817.00 555.00,819.00 555.00,819.00
             555.00,819.00 519.00,828.00 519.00,828.00
             516.15,828.59 507.41,830.89 505.10,830.52
             500.74,829.82 497.46,822.86 497.00,819.00
             497.00,819.00 483.00,800.00 483.00,800.00
             483.00,800.00 484.00,797.00 484.00,797.00
             479.09,794.15 476.64,788.17 473.49,783.61
             473.49,783.61 455.07,754.08 455.07,754.08
             451.81,748.91 447.56,744.95 446.00,739.00
             446.00,739.00 440.27,746.28 440.27,746.28
             437.08,751.24 435.27,757.84 430.00,761.00
             429.26,767.19 424.31,772.23 421.13,777.42
             418.68,781.43 418.18,784.22 414.00,787.00
             414.00,787.00 415.00,790.00 415.00,790.00
             409.55,794.73 406.07,802.47 402.32,808.57
             402.32,808.57 387.00,834.00 387.00,834.00
             371.67,831.24 347.09,828.18 333.00,823.00
             338.39,813.02 346.28,804.36 352.92,795.20
             352.92,795.20 396.86,735.75 396.86,735.75
             396.86,735.75 414.29,712.17 414.29,712.17
             415.99,709.77 419.96,705.76 420.14,703.00
             420.32,700.19 415.93,694.27 414.28,691.83
             414.28,691.83 404.04,676.00 404.04,676.00
             400.80,671.64 397.69,669.75 397.00,664.00
             393.29,661.78 392.13,658.87 389.77,655.42
             389.77,655.42 377.02,636.42 377.02,636.42
             377.02,636.42 365.97,620.71 365.97,620.71
             355.14,604.87 343.38,587.63 326.91,577.01
             310.31,566.30 300.67,567.00 282.00,567.00
             275.51,567.00 260.37,567.30 256.00,562.00
             250.62,561.68 243.65,556.47 239.58,552.97
             230.63,545.27 221.57,537.15 214.14,527.92
             214.14,527.92 200.26,511.99 200.26,511.99
             200.26,511.99 186.69,494.31 186.69,494.31
             186.69,494.31 179.72,485.59 179.72,485.59
             179.72,485.59 167.54,466.28 167.54,466.28
             167.54,466.28 145.52,428.97 145.52,428.97
             145.52,428.97 131.96,404.42 131.96,404.42
             129.41,399.62 126.29,395.53 126.00,390.00
             123.14,387.83 121.84,384.20 120.27,381.00
             117.79,375.93 113.29,369.45 113.00,364.00
             108.27,361.01 103.51,349.48 100.85,344.13
             100.85,344.13 83.53,309.58 83.53,309.58
             83.53,309.58 78.58,299.09 78.58,299.09
             76.23,294.73 67.88,282.24 71.29,277.83
             77.21,270.18 82.37,281.84 86.00,285.00
             86.00,285.00 85.00,288.00 85.00,288.00
             90.17,291.00 92.65,298.03 95.77,302.99
             98.44,307.25 100.70,308.84 101.00,314.00
             105.39,316.63 110.98,327.13 113.72,331.85
             113.72,331.85 127.87,354.28 127.87,354.28
             131.75,360.71 138.76,373.19 144.00,378.00
             144.00,378.00 143.00,381.00 143.00,381.00
             147.42,383.57 149.95,388.67 152.69,392.87
             156.47,398.69 168.19,416.45 173.00,420.00
             173.00,420.00 172.00,423.00 172.00,423.00
             177.14,425.98 181.04,433.05 184.49,437.83
             184.49,437.83 199.22,456.93 199.22,456.93
             199.22,456.93 204.72,462.65 204.72,462.65
             209.62,468.61 210.47,471.93 218.00,476.00
             217.98,473.67 218.04,471.31 217.45,469.04
             217.45,469.04 205.42,445.61 205.42,445.61
             202.50,440.96 197.32,434.41 197.00,429.00
             192.45,426.27 190.67,420.58 187.92,416.08
             187.92,416.08 174.40,392.27 174.40,392.27
             171.39,386.79 168.34,384.87 168.00,378.00
             163.80,375.21 155.59,359.91 155.00,355.00
             151.90,352.65 150.58,348.56 148.85,345.13
             148.85,345.13 139.49,328.07 139.49,328.07
             139.49,328.07 125.60,303.58 125.60,303.58
             125.60,303.58 113.42,279.27 113.42,279.27
             105.30,263.17 100.38,259.08 110.00,254.00
             118.81,262.09 126.39,278.47 132.93,288.83
             136.13,293.90 142.41,302.30 143.00,308.00
             143.00,308.00 152.22,320.95 152.22,320.95
             152.22,320.95 167.75,346.05 167.75,346.05
             167.75,346.05 172.00,356.00 172.00,356.00
             177.06,358.59 177.25,361.67 180.38,366.20
             180.38,366.20 193.25,386.29 193.25,386.29
             196.31,390.72 200.35,395.56 201.00,401.00
             206.46,404.27 209.60,410.96 213.36,415.92
             221.61,426.81 232.40,442.82 244.00,450.00
             243.17,440.23 238.75,434.72 234.18,426.73
             234.18,426.73 224.60,409.58 224.60,409.58
             221.51,404.05 216.35,394.17 212.00,390.00
             212.00,390.00 213.00,387.00 213.00,387.00
             209.94,384.69 205.81,376.74 203.78,373.13
             203.78,373.13 196.60,361.58 196.60,361.58
             196.60,361.58 190.56,350.25 190.56,350.25
             188.00,345.88 184.26,339.97 184.00,335.00
             180.49,332.78 180.03,330.65 178.07,327.17
             174.85,321.43 168.33,312.34 168.00,306.00
             163.51,302.86 159.26,292.99 156.67,287.85
             156.67,287.85 141.96,259.42 141.96,259.42
             141.96,259.42 134.48,243.75 134.48,243.75
             133.30,237.55 139.58,236.78 144.00,238.00
             144.00,238.00 143.00,240.00 143.00,240.00
             147.37,242.62 148.15,246.22 150.59,250.41
             150.59,250.41 162.63,270.73 162.63,270.73
             162.63,270.73 177.42,294.08 177.42,294.08
             177.42,294.08 181.71,301.73 181.71,301.73
             181.71,301.73 194.43,321.75 194.43,321.75
             194.43,321.75 198.59,329.41 198.59,329.41
             202.20,335.09 213.32,350.32 214.00,356.00
             214.00,356.00 222.11,366.20 222.11,366.20
             222.11,366.20 235.09,385.20 235.09,385.20
             235.09,385.20 249.73,404.66 249.73,404.66
             249.73,404.66 256.46,414.05 256.46,414.05
             256.46,414.05 279.00,436.00 279.00,436.00
             279.00,436.00 281.00,433.00 281.00,433.00
             281.00,433.00 275.90,423.75 275.90,423.75
             275.90,423.75 270.18,414.72 270.18,414.72
             270.18,414.72 263.42,402.61 263.42,402.61
             263.42,402.61 230.13,342.95 230.13,342.95
             230.13,342.95 216.41,318.27 216.41,318.27
             216.41,318.27 202.10,291.72 202.10,291.72
             202.10,291.72 197.00,280.00 197.00,280.00
             193.40,277.27 190.42,269.19 188.24,264.95
             188.24,264.95 175.55,240.92 175.55,240.92
             172.50,235.65 168.30,229.13 168.00,223.00
             163.82,219.16 172.28,216.18 175.59,218.18
             177.07,219.08 181.08,225.53 182.44,227.44
             182.44,227.44 189.80,239.39 189.80,239.39
             193.44,244.69 200.25,252.74 201.00,259.00
             205.86,261.92 214.12,276.44 217.21,281.87
             217.21,281.87 231.36,302.42 231.36,302.42
             234.81,307.57 239.68,316.04 244.00,320.00
             244.00,320.00 243.00,323.00 243.00,323.00
             246.72,325.16 247.44,327.39 250.08,330.58
             256.78,338.66 265.37,356.36 273.00,362.00
             273.00,362.00 272.00,365.00 272.00,365.00
             272.00,365.00 280.15,374.01 280.15,374.01
             280.15,374.01 297.72,397.07 297.72,397.07
             297.72,397.07 344.42,453.46 344.42,453.46
             344.42,453.46 357.00,472.00 357.00,472.00
             357.00,472.00 356.00,475.00 356.00,475.00
             359.70,478.05 360.99,487.30 361.00,492.00
             361.00,492.00 361.00,503.00 361.00,503.00
             360.96,511.07 359.53,509.63 358.21,517.00
             358.21,517.00 358.21,534.00 358.21,534.00
             358.01,542.67 361.70,551.97 365.57,559.73
             368.31,565.22 371.68,568.65 372.00,575.00
             374.56,576.94 375.01,578.86 376.94,581.34
             376.94,581.34 391.46,601.09 391.46,601.09
             391.46,601.09 428.44,649.39 428.44,649.39
             432.68,655.23 441.37,664.80 443.00,671.00
             443.00,671.00 469.87,636.00 469.87,636.00
             469.87,636.00 483.64,618.73 483.64,618.73
             483.64,618.73 488.66,611.21 488.66,611.21
             488.66,611.21 503.29,592.74 503.29,592.74
             503.29,592.74 516.28,573.85 516.28,573.85
             516.28,573.85 526.00,559.00 526.00,559.00
             525.02,553.56 527.98,551.76 529.56,546.83
             531.22,541.64 533.99,528.36 533.99,523.00
             533.99,516.77 531.77,506.91 529.68,501.00
             528.01,496.31 525.08,492.07 526.00,487.00
             522.53,484.13 523.56,481.14 522.54,477.17
             519.06,463.64 519.98,457.66 520.00,444.00
             520.01,435.13 521.18,431.23 523.04,422.96
             523.04,422.96 525.39,411.28 525.39,411.28
             527.92,402.70 534.42,389.02 538.40,380.72
             546.39,364.06 553.93,352.81 564.44,337.75
             564.44,337.75 574.27,323.66 574.27,323.66
             574.27,323.66 586.03,310.54 586.03,310.54
             586.03,310.54 590.23,304.66 590.23,304.66
             590.23,304.66 612.13,281.63 612.13,281.63
             620.97,272.79 637.58,258.54 647.75,251.44
             651.57,248.77 658.86,242.79 663.00,242.00 Z" />
</svg>
