<?xml version="1.0" encoding="UTF-8" standalone="no"?>
<!DOCTYPE svg PUBLIC "-//W3C//DTD SVG 20010904//EN"
              "http://www.w3.org/TR/2001/REC-SVG-20010904/DTD/svg10.dtd">

<svg xmlns="http://www.w3.org/2000/svg"
     width="4.56944in" height="4.48611in"
     viewBox="0 0 329 323">
  <path id="Selection #1"
        fill="black" stroke="black" stroke-width="1"
        d="M 163.00,0.84
           C 168.27,-0.10 168.28,0.59 173.00,0.84
             185.51,1.77 191.67,2.50 204.00,5.35
             261.02,18.50 304.92,60.06 321.72,116.00
             325.69,129.21 328.84,144.17 329.00,158.00
             329.00,158.00 329.00,162.00 329.00,162.00
             329.00,162.00 328.09,172.00 328.09,172.00
             325.47,210.03 309.05,247.87 281.96,274.96
             251.23,305.69 204.30,323.50 161.00,323.00
             161.00,323.00 152.00,322.17 152.00,322.17
             113.88,318.36 75.62,303.28 48.17,275.83
             -1.12,226.56 -13.99,147.54 19.48,86.00
             40.88,46.65 73.86,19.74 117.00,7.43
             127.28,4.49 139.36,2.18 150.00,0.84
             150.00,0.84 163.00,0.84 163.00,0.84 Z
           M 151.00,13.28
           C 124.12,17.15 107.67,20.06 84.00,35.05
             78.59,38.48 66.92,45.28 66.16,52.00
             65.54,57.61 70.45,61.44 74.00,65.00
             74.00,65.00 98.00,89.00 98.00,89.00
             98.00,89.00 201.00,192.00 201.00,192.00
             201.00,192.00 230.00,220.96 230.00,220.96
             230.00,220.96 239.99,230.01 239.99,230.01
             239.99,230.01 254.00,245.00 254.00,245.00
             258.43,249.43 268.38,262.04 275.00,260.67
             280.95,259.44 289.21,247.07 292.66,242.00
             306.40,221.76 315.71,192.53 316.00,168.00
             316.26,145.23 313.43,123.01 304.14,102.00
             277.82,42.45 215.32,7.30 151.00,13.28 Z
           M 90.00,140.00
           C 90.00,140.00 105.40,123.00 105.40,123.00
             106.42,121.38 106.89,119.92 106.89,118.00
             106.89,112.49 100.66,107.66 97.00,104.00
             97.00,104.00 68.00,75.00 68.00,75.00
             64.94,71.94 59.12,65.19 55.00,64.33
             47.51,62.78 40.14,75.67 36.43,81.00
             23.85,99.14 14.03,127.81 14.00,150.00
             13.97,167.86 13.03,179.21 17.24,197.00
             25.52,232.03 50.07,265.26 80.00,284.92
             103.72,300.51 124.90,307.16 153.00,309.09
             153.00,309.09 165.00,310.00 165.00,310.00
             182.29,310.03 204.90,306.12 221.00,299.80
             233.60,294.85 237.56,292.78 249.00,285.41
             252.25,283.32 258.22,279.34 259.98,275.96
             264.19,267.87 252.07,259.07 247.00,254.00
             243.62,250.62 232.30,238.67 229.00,237.02
             225.91,235.48 217.75,236.00 214.00,236.00
             214.00,236.00 181.00,236.00 181.00,236.00
             181.00,236.00 181.00,195.00 181.00,195.00
             180.88,176.72 162.66,180.00 150.00,180.00
             146.08,180.00 138.23,179.29 135.15,181.60
             131.64,184.22 132.01,188.11 132.00,192.00
             132.00,192.00 132.00,236.00 132.00,236.00
             132.00,236.00 107.00,236.00 107.00,236.00
             107.00,236.00 107.00,163.00 107.00,163.00
             107.00,163.00 107.00,150.00 107.00,150.00
             106.84,141.69 103.80,140.05 96.00,140.00
             96.00,140.00 90.00,140.00 90.00,140.00 Z
           M 165.00,64.00
           C 165.00,64.00 209.00,107.00 209.00,107.00
             209.00,107.00 225.07,123.83 225.07,123.83
             225.07,123.83 240.00,140.00 240.00,140.00
             233.03,143.33 232.04,146.74 232.00,154.00
             231.95,163.74 231.15,193.39 233.00,201.00
             226.54,196.37 211.53,180.53 205.00,174.00
             205.00,174.00 156.00,125.00 156.00,125.00
             156.00,125.00 138.00,107.00 138.00,107.00
             136.20,105.18 132.20,101.69 132.20,99.00
             132.20,96.04 137.91,91.09 140.00,89.00
             140.00,89.00 165.00,64.00 165.00,64.00 Z" />
</svg>
